<?xml version="1.0" encoding="utf-8" standalone="no"?>
<!DOCTYPE svg PUBLIC "-//W3C//DTD SVG 1.1//EN"
  "http://www.w3.org/Graphics/SVG/1.1/DTD/svg11.dtd">
<svg xmlns:xlink="http://www.w3.org/1999/xlink" width="181.8pt" height="97.56pt" viewBox="0 0 181.8 97.56" xmlns="http://www.w3.org/2000/svg" version="1.1">
 <metadata>
  <rdf:RDF xmlns:dc="http://purl.org/dc/elements/1.1/" xmlns:cc="http://creativecommons.org/ns#" xmlns:rdf="http://www.w3.org/1999/02/22-rdf-syntax-ns#">
   <cc:Work>
    <dc:type rdf:resource="http://purl.org/dc/dcmitype/StillImage"/>
    <dc:date>2024-04-22T12:49:09.432773</dc:date>
    <dc:format>image/svg+xml</dc:format>
    <dc:creator>
     <cc:Agent>
      <dc:title>Matplotlib v3.8.4, https://matplotlib.org/</dc:title>
     </cc:Agent>
    </dc:creator>
   </cc:Work>
  </rdf:RDF>
 </metadata>
 <defs>
  <style type="text/css">*{stroke-linejoin: round; stroke-linecap: butt}</style>
 </defs>
 <g id="figure_1">
  <g id="patch_1">
   <path d="M 0 97.56 
L 181.8 97.56 
L 181.8 0 
L 0 0 
z
" style="fill: #ffffff"/>
  </g>
  <g id="axes_1">
   <g id="patch_2">
    <path d="M 30.385807 83.143636 
Q 90.897916 83.143636 150.291992 83.143636 
" clip-path="url(#pdea77f9178)" style="fill: none; stroke: #000000; stroke-linecap: round"/>
    <path d="M 146.291992 81.143636 
L 150.291992 83.143636 
L 146.291992 85.143636 
z
" clip-path="url(#pdea77f9178)" style="stroke: #000000; stroke-linecap: round"/>
   </g>
   <g id="patch_3">
    <path d="M 71.632396 21.163667 
Q 49.394945 48.781145 27.858681 75.527797 
" clip-path="url(#pdea77f9178)" style="fill: none; stroke: #000000; stroke-linecap: round"/>
    <path d="M 31.925099 73.666551 
L 27.858681 75.527797 
L 28.809535 71.157914 
z
" clip-path="url(#pdea77f9178)" style="stroke: #000000; stroke-linecap: round"/>
   </g>
   <g id="patch_4">
    <path d="M 98.064766 19.938791 
Q 63.230515 48.780052 29.257435 76.908302 
" clip-path="url(#pdea77f9178)" style="fill: none; stroke: #000000; stroke-linecap: round"/>
    <path d="M 33.613925 75.897861 
L 29.257435 76.908302 
L 31.062977 72.816845 
z
" clip-path="url(#pdea77f9178)" style="stroke: #000000; stroke-linecap: round"/>
   </g>
   <g id="patch_5">
    <path d="M 110.167604 21.163667 
Q 132.405055 48.781145 153.941319 75.527797 
" clip-path="url(#pdea77f9178)" style="fill: none; stroke: #000000; stroke-linecap: round"/>
    <path d="M 152.990465 71.157914 
L 153.941319 75.527797 
L 149.874901 73.666551 
z
" clip-path="url(#pdea77f9178)" style="stroke: #000000; stroke-linecap: round"/>
   </g>
   <g id="patch_6">
    <path d="M 135.638199 22.449367 
Q 146.238436 48.778989 156.421124 74.071473 
" clip-path="url(#pdea77f9178)" style="fill: none; stroke: #000000; stroke-linecap: round"/>
    <path d="M 156.782544 69.613965 
L 156.421124 74.071473 
L 153.07197 71.107833 
z
" clip-path="url(#pdea77f9178)" style="stroke: #000000; stroke-linecap: round"/>
   </g>
   <g id="PathCollection_1">
    <defs>
     <path id="m858dd7528a" d="M 0 8.660254 
C 2.296726 8.660254 4.499694 7.747755 6.123724 6.123724 
C 7.747755 4.499694 8.660254 2.296726 8.660254 0 
C 8.660254 -2.296726 7.747755 -4.499694 6.123724 -6.123724 
C 4.499694 -7.747755 2.296726 -8.660254 0 -8.660254 
C -2.296726 -8.660254 -4.499694 -7.747755 -6.123724 -6.123724 
C -7.747755 -4.499694 -8.660254 -2.296726 -8.660254 0 
C -8.660254 2.296726 -7.747755 4.499694 -6.123724 6.123724 
C -4.499694 7.747755 -2.296726 8.660254 0 8.660254 
z
" style="stroke: #ffffff"/>
    </defs>
    <g clip-path="url(#pdea77f9178)">
     <use xlink:href="#m858dd7528a" x="21.726446" y="83.143636" style="fill: #ffffff; stroke: #ffffff"/>
     <use xlink:href="#m858dd7528a" x="160.073554" y="83.143636" style="fill: #ffffff; stroke: #ffffff"/>
     <use xlink:href="#m858dd7528a" x="77.065289" y="14.416364" style="fill: #ffffff; stroke: #ffffff"/>
     <use xlink:href="#m858dd7528a" x="104.734711" y="14.416364" style="fill: #ffffff; stroke: #ffffff"/>
     <use xlink:href="#m858dd7528a" x="132.404132" y="14.416364" style="fill: #ffffff; stroke: #ffffff"/>
     <use xlink:href="#m858dd7528a" x="49.395868" y="14.416364" style="fill: #ffffff; stroke: #ffffff"/>
    </g>
   </g>
   <g id="text_1">
    <g clip-path="url(#pdea77f9178)">
     <!-- $A$ -->
     <g transform="translate(17.586446 86.454886) scale(0.12 -0.12)">
      <defs>
       <path id="DejaVuSans-Oblique-41" d="M 2356 4666 
L 3072 4666 
L 3938 0 
L 3278 0 
L 3084 1197 
L 984 1197 
L 325 0 
L -341 0 
L 2356 4666 
z
M 2584 4044 
L 1275 1722 
L 2988 1722 
L 2584 4044 
z
" transform="scale(0.015625)"/>
      </defs>
      <use xlink:href="#DejaVuSans-Oblique-41" transform="translate(0 0.09375)"/>
     </g>
    </g>
   </g>
   <g id="text_2">
    <g clip-path="url(#pdea77f9178)">
     <!-- $Y$ -->
     <g transform="translate(156.353554 86.454886) scale(0.12 -0.12)">
      <defs>
       <path id="DejaVuSans-Oblique-59" d="M 403 4666 
L 1081 4666 
L 1953 2747 
L 3616 4666 
L 4325 4666 
L 2209 2222 
L 1778 0 
L 1147 0 
L 1575 2222 
L 403 4666 
z
" transform="scale(0.015625)"/>
      </defs>
      <use xlink:href="#DejaVuSans-Oblique-59" transform="translate(0 0.09375)"/>
     </g>
    </g>
   </g>
   <g id="text_3">
    <g clip-path="url(#pdea77f9178)">
     <!-- $X_A$ -->
     <g transform="translate(69.865289 17.727614) scale(0.12 -0.12)">
      <defs>
       <path id="DejaVuSans-Oblique-58" d="M 878 4666 
L 1516 4666 
L 2316 2981 
L 3763 4666 
L 4500 4666 
L 2578 2438 
L 3738 0 
L 3103 0 
L 2163 1966 
L 459 0 
L -275 0 
L 1906 2509 
L 878 4666 
z
" transform="scale(0.015625)"/>
      </defs>
      <use xlink:href="#DejaVuSans-Oblique-58" transform="translate(0 0.09375)"/>
      <use xlink:href="#DejaVuSans-Oblique-41" transform="translate(68.505859 -16.3125) scale(0.7)"/>
     </g>
    </g>
   </g>
   <g id="text_4">
    <g clip-path="url(#pdea77f9178)">
     <!-- $X_{AY}$ -->
     <g transform="translate(95.014711 17.727614) scale(0.12 -0.12)">
      <use xlink:href="#DejaVuSans-Oblique-58" transform="translate(0 0.09375)"/>
      <use xlink:href="#DejaVuSans-Oblique-41" transform="translate(68.505859 -16.3125) scale(0.7)"/>
      <use xlink:href="#DejaVuSans-Oblique-59" transform="translate(116.391602 -16.3125) scale(0.7)"/>
     </g>
    </g>
   </g>
   <g id="text_5">
    <g clip-path="url(#pdea77f9178)">
     <!-- $X_Y$ -->
     <g transform="translate(125.564132 17.727614) scale(0.12 -0.12)">
      <use xlink:href="#DejaVuSans-Oblique-58" transform="translate(0 0.09375)"/>
      <use xlink:href="#DejaVuSans-Oblique-59" transform="translate(68.505859 -16.3125) scale(0.7)"/>
     </g>
    </g>
   </g>
   <g id="text_6">
    <g clip-path="url(#pdea77f9178)">
     <!-- $X_0$ -->
     <g transform="translate(42.435868 17.727614) scale(0.12 -0.12)">
      <defs>
       <path id="DejaVuSans-30" d="M 2034 4250 
Q 1547 4250 1301 3770 
Q 1056 3291 1056 2328 
Q 1056 1369 1301 889 
Q 1547 409 2034 409 
Q 2525 409 2770 889 
Q 3016 1369 3016 2328 
Q 3016 3291 2770 3770 
Q 2525 4250 2034 4250 
z
M 2034 4750 
Q 2819 4750 3233 4129 
Q 3647 3509 3647 2328 
Q 3647 1150 3233 529 
Q 2819 -91 2034 -91 
Q 1250 -91 836 529 
Q 422 1150 422 2328 
Q 422 3509 836 4129 
Q 1250 4750 2034 4750 
z
" transform="scale(0.015625)"/>
      </defs>
      <use xlink:href="#DejaVuSans-Oblique-58" transform="translate(0 0.09375)"/>
      <use xlink:href="#DejaVuSans-30" transform="translate(68.505859 -16.3125) scale(0.7)"/>
     </g>
    </g>
   </g>
  </g>
 </g>
 <defs>
  <clipPath id="pdea77f9178">
   <rect x="7.2" y="7.2" width="167.4" height="83.16"/>
  </clipPath>
 </defs>
</svg>
