<?xml version="1.0" encoding="utf-8" standalone="no"?>
<!DOCTYPE svg PUBLIC "-//W3C//DTD SVG 1.1//EN"
  "http://www.w3.org/Graphics/SVG/1.1/DTD/svg11.dtd">
<svg xmlns:xlink="http://www.w3.org/1999/xlink" width="572.4pt" height="175.637813pt" viewBox="0 0 572.4 175.637813" xmlns="http://www.w3.org/2000/svg" version="1.1">
 <metadata>
  <rdf:RDF xmlns:dc="http://purl.org/dc/elements/1.1/" xmlns:cc="http://creativecommons.org/ns#" xmlns:rdf="http://www.w3.org/1999/02/22-rdf-syntax-ns#">
   <cc:Work>
    <dc:type rdf:resource="http://purl.org/dc/dcmitype/StillImage"/>
    <dc:date>2024-04-22T22:41:59.067219</dc:date>
    <dc:format>image/svg+xml</dc:format>
    <dc:creator>
     <cc:Agent>
      <dc:title>Matplotlib v3.8.4, https://matplotlib.org/</dc:title>
     </cc:Agent>
    </dc:creator>
   </cc:Work>
  </rdf:RDF>
 </metadata>
 <defs>
  <style type="text/css">*{stroke-linejoin: round; stroke-linecap: butt}</style>
 </defs>
 <g id="figure_1">
  <g id="patch_1">
   <path d="M 0 175.637813 
L 572.4 175.637813 
L 572.4 0 
L 0 0 
z
" style="fill: #ffffff"/>
  </g>
  <g id="axes_1">
   <g id="patch_2">
    <path d="M 40.0694 156.41054 
Q 146.700035 156.41054 252.212637 156.41054 
" clip-path="url(#pdc7c85ce99)" style="fill: none; stroke: #000000; stroke-linecap: round"/>
    <path d="M 248.212637 154.41054 
L 252.212637 156.41054 
L 248.212637 158.41054 
z
" clip-path="url(#pdc7c85ce99)" style="stroke: #000000; stroke-linecap: round"/>
   </g>
   <g id="patch_3">
    <path d="M 118.212633 48.608194 
Q 77.528221 99.135609 37.544994 148.792197 
" clip-path="url(#pdc7c85ce99)" style="fill: none; stroke: #000000; stroke-linecap: round"/>
    <path d="M 41.611413 146.93095 
L 37.544994 148.792197 
L 38.495848 144.422314 
z
" clip-path="url(#pdc7c85ce99)" style="stroke: #000000; stroke-linecap: round"/>
   </g>
   <g id="patch_4">
    <path d="M 163.089173 47.386464 
Q 100.584314 99.137799 38.940626 150.176121 
" clip-path="url(#pdc7c85ce99)" style="fill: none; stroke: #000000; stroke-linecap: round"/>
    <path d="M 43.297116 149.16568 
L 38.940626 150.176121 
L 40.746168 146.084664 
z
" clip-path="url(#pdc7c85ce99)" style="stroke: #000000; stroke-linecap: round"/>
   </g>
   <g id="patch_5">
    <path d="M 175.187367 48.608194 
Q 215.871779 99.135609 255.855006 148.792197 
" clip-path="url(#pdc7c85ce99)" style="fill: none; stroke: #000000; stroke-linecap: round"/>
    <path d="M 254.904152 144.422314 
L 255.855006 148.792197 
L 251.788587 146.93095 
z
" clip-path="url(#pdc7c85ce99)" style="stroke: #000000; stroke-linecap: round"/>
   </g>
   <g id="patch_6">
    <path d="M 219.109027 49.901584 
Q 238.932366 99.140199 258.338155 147.341676 
" clip-path="url(#pdc7c85ce99)" style="fill: none; stroke: #000000; stroke-linecap: round"/>
    <path d="M 258.699575 142.884168 
L 258.338155 147.341676 
L 254.989001 144.378035 
z
" clip-path="url(#pdc7c85ce99)" style="stroke: #000000; stroke-linecap: round"/>
   </g>
   <g id="patch_7">
    <path d="M 74.290973 49.901584 
Q 54.467634 99.140199 35.061845 147.341676 
" clip-path="url(#pdc7c85ce99)" style="fill: none; stroke-dasharray: 3.7,1.6; stroke-dashoffset: 0; stroke: #9e3434; stroke-linecap: round"/>
    <path d="M 38.410999 144.378035 
L 35.061845 147.341676 
L 34.700425 142.884168 
z
" clip-path="url(#pdc7c85ce99)" style="fill: #9e3434; stroke-dasharray: 3.7,1.6; stroke-dashoffset: 0; stroke: #9e3434; stroke-linecap: round"/>
   </g>
   <g id="patch_8">
    <path d="M 84.881203 46.432152 
Q 169.755838 99.136562 253.680665 151.251172 
" clip-path="url(#pdc7c85ce99)" style="fill: none; stroke-dasharray: 3.7,1.6; stroke-dashoffset: 0; stroke: #9e3434; stroke-linecap: round"/>
    <path d="M 251.337594 147.44197 
L 253.680665 151.251172 
L 249.227461 150.840107 
z
" clip-path="url(#pdc7c85ce99)" style="fill: #9e3434; stroke-dasharray: 3.7,1.6; stroke-dashoffset: 0; stroke: #9e3434; stroke-linecap: round"/>
   </g>
   <g id="patch_9">
    <path d="M 130.310827 47.386464 
Q 192.815686 99.137799 254.459374 150.176121 
" clip-path="url(#pdc7c85ce99)" style="fill: none; stroke-dasharray: 3.7,1.6; stroke-dashoffset: 0; stroke: #9e3434; stroke-linecap: round"/>
    <path d="M 252.653832 146.084664 
L 254.459374 150.176121 
L 250.102884 149.16568 
z
" clip-path="url(#pdc7c85ce99)" style="fill: #9e3434; stroke-dasharray: 3.7,1.6; stroke-dashoffset: 0; stroke: #9e3434; stroke-linecap: round"/>
   </g>
   <g id="patch_10">
    <path d="M 208.518797 46.432152 
Q 123.644162 99.136562 39.719335 151.251172 
" clip-path="url(#pdc7c85ce99)" style="fill: none; stroke-dasharray: 3.7,1.6; stroke-dashoffset: 0; stroke: #9e3434; stroke-linecap: round"/>
    <path d="M 44.172539 150.840107 
L 39.719335 151.251172 
L 42.062406 147.44197 
z
" clip-path="url(#pdc7c85ce99)" style="fill: #9e3434; stroke-dasharray: 3.7,1.6; stroke-dashoffset: 0; stroke: #9e3434; stroke-linecap: round"/>
   </g>
   <g id="PathCollection_1">
    <defs>
     <path id="mda3b06aa5d" d="M 0 8.660254 
C 2.296726 8.660254 4.499694 7.747755 6.123724 6.123724 
C 7.747755 4.499694 8.660254 2.296726 8.660254 0 
C 8.660254 -2.296726 7.747755 -4.499694 6.123724 -6.123724 
C 4.499694 -7.747755 2.296726 -8.660254 0 -8.660254 
C -2.296726 -8.660254 -4.499694 -7.747755 -6.123724 -6.123724 
C -7.747755 -4.499694 -8.660254 -2.296726 -8.660254 0 
C -8.660254 2.296726 -7.747755 4.499694 -6.123724 6.123724 
C -4.499694 7.747755 -2.296726 8.660254 0 8.660254 
z
" style="stroke: #ffffff"/>
    </defs>
    <g clip-path="url(#pdc7c85ce99)">
     <use xlink:href="#mda3b06aa5d" x="31.410744" y="156.41054" style="fill: #ffffff; stroke: #ffffff"/>
     <use xlink:href="#mda3b06aa5d" x="261.989256" y="156.41054" style="fill: #ffffff; stroke: #ffffff"/>
     <use xlink:href="#mda3b06aa5d" x="123.642149" y="41.865085" style="fill: #ffffff; stroke: #ffffff"/>
     <use xlink:href="#mda3b06aa5d" x="169.757851" y="41.865085" style="fill: #ffffff; stroke: #ffffff"/>
     <use xlink:href="#mda3b06aa5d" x="215.873554" y="41.865085" style="fill: #ffffff; stroke: #ffffff"/>
     <use xlink:href="#mda3b06aa5d" x="77.526446" y="41.865085" style="fill: #ffffff; stroke: #ffffff"/>
    </g>
   </g>
   <g id="text_1">
    <g clip-path="url(#pdc7c85ce99)">
     <!-- $A$ -->
     <g transform="translate(26.580744 160.273665) scale(0.14 -0.14)">
      <defs>
       <path id="DejaVuSans-Oblique-41" d="M 2356 4666 
L 3072 4666 
L 3938 0 
L 3278 0 
L 3084 1197 
L 984 1197 
L 325 0 
L -341 0 
L 2356 4666 
z
M 2584 4044 
L 1275 1722 
L 2988 1722 
L 2584 4044 
z
" transform="scale(0.015625)"/>
      </defs>
      <use xlink:href="#DejaVuSans-Oblique-41" transform="translate(0 0.09375)"/>
     </g>
    </g>
   </g>
   <g id="text_2">
    <g clip-path="url(#pdc7c85ce99)">
     <!-- $Y$ -->
     <g transform="translate(257.649256 160.273665) scale(0.14 -0.14)">
      <defs>
       <path id="DejaVuSans-Oblique-59" d="M 403 4666 
L 1081 4666 
L 1953 2747 
L 3616 4666 
L 4325 4666 
L 2209 2222 
L 1778 0 
L 1147 0 
L 1575 2222 
L 403 4666 
z
" transform="scale(0.015625)"/>
      </defs>
      <use xlink:href="#DejaVuSans-Oblique-59" transform="translate(0 0.09375)"/>
     </g>
    </g>
   </g>
   <g id="text_3">
    <g clip-path="url(#pdc7c85ce99)">
     <!-- $X_A$ -->
     <g transform="translate(115.242149 45.72821) scale(0.14 -0.14)">
      <defs>
       <path id="DejaVuSans-Oblique-58" d="M 878 4666 
L 1516 4666 
L 2316 2981 
L 3763 4666 
L 4500 4666 
L 2578 2438 
L 3738 0 
L 3103 0 
L 2163 1966 
L 459 0 
L -275 0 
L 1906 2509 
L 878 4666 
z
" transform="scale(0.015625)"/>
      </defs>
      <use xlink:href="#DejaVuSans-Oblique-58" transform="translate(0 0.09375)"/>
      <use xlink:href="#DejaVuSans-Oblique-41" transform="translate(68.505859 -16.3125) scale(0.7)"/>
     </g>
    </g>
   </g>
   <g id="text_4">
    <g clip-path="url(#pdc7c85ce99)">
     <!-- $X_{AY}$ -->
     <g transform="translate(158.417851 45.72821) scale(0.14 -0.14)">
      <use xlink:href="#DejaVuSans-Oblique-58" transform="translate(0 0.09375)"/>
      <use xlink:href="#DejaVuSans-Oblique-41" transform="translate(68.505859 -16.3125) scale(0.7)"/>
      <use xlink:href="#DejaVuSans-Oblique-59" transform="translate(116.391602 -16.3125) scale(0.7)"/>
     </g>
    </g>
   </g>
   <g id="text_5">
    <g clip-path="url(#pdc7c85ce99)">
     <!-- $X_Y$ -->
     <g transform="translate(207.893554 45.72821) scale(0.14 -0.14)">
      <use xlink:href="#DejaVuSans-Oblique-58" transform="translate(0 0.09375)"/>
      <use xlink:href="#DejaVuSans-Oblique-59" transform="translate(68.505859 -16.3125) scale(0.7)"/>
     </g>
    </g>
   </g>
   <g id="text_6">
    <g clip-path="url(#pdc7c85ce99)">
     <!-- $X_0$ -->
     <g transform="translate(69.406446 45.72821) scale(0.14 -0.14)">
      <defs>
       <path id="DejaVuSans-30" d="M 2034 4250 
Q 1547 4250 1301 3770 
Q 1056 3291 1056 2328 
Q 1056 1369 1301 889 
Q 1547 409 2034 409 
Q 2525 409 2770 889 
Q 3016 1369 3016 2328 
Q 3016 3291 2770 3770 
Q 2525 4250 2034 4250 
z
M 2034 4750 
Q 2819 4750 3233 4129 
Q 3647 3509 3647 2328 
Q 3647 1150 3233 529 
Q 2819 -91 2034 -91 
Q 1250 -91 836 529 
Q 422 1150 422 2328 
Q 422 3509 836 4129 
Q 1250 4750 2034 4750 
z
" transform="scale(0.015625)"/>
      </defs>
      <use xlink:href="#DejaVuSans-Oblique-58" transform="translate(0 0.09375)"/>
      <use xlink:href="#DejaVuSans-30" transform="translate(68.505859 -16.3125) scale(0.7)"/>
     </g>
    </g>
   </g>
   <g id="text_7">
    <!-- Assumed confounding structure -->
    <g transform="translate(34.945 17.837813) scale(0.14 -0.14)">
     <defs>
      <path id="DejaVuSans-41" d="M 2188 4044 
L 1331 1722 
L 3047 1722 
L 2188 4044 
z
M 1831 4666 
L 2547 4666 
L 4325 0 
L 3669 0 
L 3244 1197 
L 1141 1197 
L 716 0 
L 50 0 
L 1831 4666 
z
" transform="scale(0.015625)"/>
      <path id="DejaVuSans-73" d="M 2834 3397 
L 2834 2853 
Q 2591 2978 2328 3040 
Q 2066 3103 1784 3103 
Q 1356 3103 1142 2972 
Q 928 2841 928 2578 
Q 928 2378 1081 2264 
Q 1234 2150 1697 2047 
L 1894 2003 
Q 2506 1872 2764 1633 
Q 3022 1394 3022 966 
Q 3022 478 2636 193 
Q 2250 -91 1575 -91 
Q 1294 -91 989 -36 
Q 684 19 347 128 
L 347 722 
Q 666 556 975 473 
Q 1284 391 1588 391 
Q 1994 391 2212 530 
Q 2431 669 2431 922 
Q 2431 1156 2273 1281 
Q 2116 1406 1581 1522 
L 1381 1569 
Q 847 1681 609 1914 
Q 372 2147 372 2553 
Q 372 3047 722 3315 
Q 1072 3584 1716 3584 
Q 2034 3584 2315 3537 
Q 2597 3491 2834 3397 
z
" transform="scale(0.015625)"/>
      <path id="DejaVuSans-75" d="M 544 1381 
L 544 3500 
L 1119 3500 
L 1119 1403 
Q 1119 906 1312 657 
Q 1506 409 1894 409 
Q 2359 409 2629 706 
Q 2900 1003 2900 1516 
L 2900 3500 
L 3475 3500 
L 3475 0 
L 2900 0 
L 2900 538 
Q 2691 219 2414 64 
Q 2138 -91 1772 -91 
Q 1169 -91 856 284 
Q 544 659 544 1381 
z
M 1991 3584 
L 1991 3584 
z
" transform="scale(0.015625)"/>
      <path id="DejaVuSans-6d" d="M 3328 2828 
Q 3544 3216 3844 3400 
Q 4144 3584 4550 3584 
Q 5097 3584 5394 3201 
Q 5691 2819 5691 2113 
L 5691 0 
L 5113 0 
L 5113 2094 
Q 5113 2597 4934 2840 
Q 4756 3084 4391 3084 
Q 3944 3084 3684 2787 
Q 3425 2491 3425 1978 
L 3425 0 
L 2847 0 
L 2847 2094 
Q 2847 2600 2669 2842 
Q 2491 3084 2119 3084 
Q 1678 3084 1418 2786 
Q 1159 2488 1159 1978 
L 1159 0 
L 581 0 
L 581 3500 
L 1159 3500 
L 1159 2956 
Q 1356 3278 1631 3431 
Q 1906 3584 2284 3584 
Q 2666 3584 2933 3390 
Q 3200 3197 3328 2828 
z
" transform="scale(0.015625)"/>
      <path id="DejaVuSans-65" d="M 3597 1894 
L 3597 1613 
L 953 1613 
Q 991 1019 1311 708 
Q 1631 397 2203 397 
Q 2534 397 2845 478 
Q 3156 559 3463 722 
L 3463 178 
Q 3153 47 2828 -22 
Q 2503 -91 2169 -91 
Q 1331 -91 842 396 
Q 353 884 353 1716 
Q 353 2575 817 3079 
Q 1281 3584 2069 3584 
Q 2775 3584 3186 3129 
Q 3597 2675 3597 1894 
z
M 3022 2063 
Q 3016 2534 2758 2815 
Q 2500 3097 2075 3097 
Q 1594 3097 1305 2825 
Q 1016 2553 972 2059 
L 3022 2063 
z
" transform="scale(0.015625)"/>
      <path id="DejaVuSans-64" d="M 2906 2969 
L 2906 4863 
L 3481 4863 
L 3481 0 
L 2906 0 
L 2906 525 
Q 2725 213 2448 61 
Q 2172 -91 1784 -91 
Q 1150 -91 751 415 
Q 353 922 353 1747 
Q 353 2572 751 3078 
Q 1150 3584 1784 3584 
Q 2172 3584 2448 3432 
Q 2725 3281 2906 2969 
z
M 947 1747 
Q 947 1113 1208 752 
Q 1469 391 1925 391 
Q 2381 391 2643 752 
Q 2906 1113 2906 1747 
Q 2906 2381 2643 2742 
Q 2381 3103 1925 3103 
Q 1469 3103 1208 2742 
Q 947 2381 947 1747 
z
" transform="scale(0.015625)"/>
      <path id="DejaVuSans-20" transform="scale(0.015625)"/>
      <path id="DejaVuSans-63" d="M 3122 3366 
L 3122 2828 
Q 2878 2963 2633 3030 
Q 2388 3097 2138 3097 
Q 1578 3097 1268 2742 
Q 959 2388 959 1747 
Q 959 1106 1268 751 
Q 1578 397 2138 397 
Q 2388 397 2633 464 
Q 2878 531 3122 666 
L 3122 134 
Q 2881 22 2623 -34 
Q 2366 -91 2075 -91 
Q 1284 -91 818 406 
Q 353 903 353 1747 
Q 353 2603 823 3093 
Q 1294 3584 2113 3584 
Q 2378 3584 2631 3529 
Q 2884 3475 3122 3366 
z
" transform="scale(0.015625)"/>
      <path id="DejaVuSans-6f" d="M 1959 3097 
Q 1497 3097 1228 2736 
Q 959 2375 959 1747 
Q 959 1119 1226 758 
Q 1494 397 1959 397 
Q 2419 397 2687 759 
Q 2956 1122 2956 1747 
Q 2956 2369 2687 2733 
Q 2419 3097 1959 3097 
z
M 1959 3584 
Q 2709 3584 3137 3096 
Q 3566 2609 3566 1747 
Q 3566 888 3137 398 
Q 2709 -91 1959 -91 
Q 1206 -91 779 398 
Q 353 888 353 1747 
Q 353 2609 779 3096 
Q 1206 3584 1959 3584 
z
" transform="scale(0.015625)"/>
      <path id="DejaVuSans-6e" d="M 3513 2113 
L 3513 0 
L 2938 0 
L 2938 2094 
Q 2938 2591 2744 2837 
Q 2550 3084 2163 3084 
Q 1697 3084 1428 2787 
Q 1159 2491 1159 1978 
L 1159 0 
L 581 0 
L 581 3500 
L 1159 3500 
L 1159 2956 
Q 1366 3272 1645 3428 
Q 1925 3584 2291 3584 
Q 2894 3584 3203 3211 
Q 3513 2838 3513 2113 
z
" transform="scale(0.015625)"/>
      <path id="DejaVuSans-66" d="M 2375 4863 
L 2375 4384 
L 1825 4384 
Q 1516 4384 1395 4259 
Q 1275 4134 1275 3809 
L 1275 3500 
L 2222 3500 
L 2222 3053 
L 1275 3053 
L 1275 0 
L 697 0 
L 697 3053 
L 147 3053 
L 147 3500 
L 697 3500 
L 697 3744 
Q 697 4328 969 4595 
Q 1241 4863 1831 4863 
L 2375 4863 
z
" transform="scale(0.015625)"/>
      <path id="DejaVuSans-69" d="M 603 3500 
L 1178 3500 
L 1178 0 
L 603 0 
L 603 3500 
z
M 603 4863 
L 1178 4863 
L 1178 4134 
L 603 4134 
L 603 4863 
z
" transform="scale(0.015625)"/>
      <path id="DejaVuSans-67" d="M 2906 1791 
Q 2906 2416 2648 2759 
Q 2391 3103 1925 3103 
Q 1463 3103 1205 2759 
Q 947 2416 947 1791 
Q 947 1169 1205 825 
Q 1463 481 1925 481 
Q 2391 481 2648 825 
Q 2906 1169 2906 1791 
z
M 3481 434 
Q 3481 -459 3084 -895 
Q 2688 -1331 1869 -1331 
Q 1566 -1331 1297 -1286 
Q 1028 -1241 775 -1147 
L 775 -588 
Q 1028 -725 1275 -790 
Q 1522 -856 1778 -856 
Q 2344 -856 2625 -561 
Q 2906 -266 2906 331 
L 2906 616 
Q 2728 306 2450 153 
Q 2172 0 1784 0 
Q 1141 0 747 490 
Q 353 981 353 1791 
Q 353 2603 747 3093 
Q 1141 3584 1784 3584 
Q 2172 3584 2450 3431 
Q 2728 3278 2906 2969 
L 2906 3500 
L 3481 3500 
L 3481 434 
z
" transform="scale(0.015625)"/>
      <path id="DejaVuSans-74" d="M 1172 4494 
L 1172 3500 
L 2356 3500 
L 2356 3053 
L 1172 3053 
L 1172 1153 
Q 1172 725 1289 603 
Q 1406 481 1766 481 
L 2356 481 
L 2356 0 
L 1766 0 
Q 1100 0 847 248 
Q 594 497 594 1153 
L 594 3053 
L 172 3053 
L 172 3500 
L 594 3500 
L 594 4494 
L 1172 4494 
z
" transform="scale(0.015625)"/>
      <path id="DejaVuSans-72" d="M 2631 2963 
Q 2534 3019 2420 3045 
Q 2306 3072 2169 3072 
Q 1681 3072 1420 2755 
Q 1159 2438 1159 1844 
L 1159 0 
L 581 0 
L 581 3500 
L 1159 3500 
L 1159 2956 
Q 1341 3275 1631 3429 
Q 1922 3584 2338 3584 
Q 2397 3584 2469 3576 
Q 2541 3569 2628 3553 
L 2631 2963 
z
" transform="scale(0.015625)"/>
     </defs>
     <use xlink:href="#DejaVuSans-41"/>
     <use xlink:href="#DejaVuSans-73" x="68.408203"/>
     <use xlink:href="#DejaVuSans-73" x="120.507812"/>
     <use xlink:href="#DejaVuSans-75" x="172.607422"/>
     <use xlink:href="#DejaVuSans-6d" x="235.986328"/>
     <use xlink:href="#DejaVuSans-65" x="333.398438"/>
     <use xlink:href="#DejaVuSans-64" x="394.921875"/>
     <use xlink:href="#DejaVuSans-20" x="458.398438"/>
     <use xlink:href="#DejaVuSans-63" x="490.185547"/>
     <use xlink:href="#DejaVuSans-6f" x="545.166016"/>
     <use xlink:href="#DejaVuSans-6e" x="606.347656"/>
     <use xlink:href="#DejaVuSans-66" x="669.726562"/>
     <use xlink:href="#DejaVuSans-6f" x="704.931641"/>
     <use xlink:href="#DejaVuSans-75" x="766.113281"/>
     <use xlink:href="#DejaVuSans-6e" x="829.492188"/>
     <use xlink:href="#DejaVuSans-64" x="892.871094"/>
     <use xlink:href="#DejaVuSans-69" x="956.347656"/>
     <use xlink:href="#DejaVuSans-6e" x="984.130859"/>
     <use xlink:href="#DejaVuSans-67" x="1047.509766"/>
     <use xlink:href="#DejaVuSans-20" x="1110.986328"/>
     <use xlink:href="#DejaVuSans-73" x="1142.773438"/>
     <use xlink:href="#DejaVuSans-74" x="1194.873047"/>
     <use xlink:href="#DejaVuSans-72" x="1234.082031"/>
     <use xlink:href="#DejaVuSans-75" x="1275.195312"/>
     <use xlink:href="#DejaVuSans-63" x="1338.574219"/>
     <use xlink:href="#DejaVuSans-74" x="1393.554688"/>
     <use xlink:href="#DejaVuSans-75" x="1432.763672"/>
     <use xlink:href="#DejaVuSans-72" x="1496.142578"/>
     <use xlink:href="#DejaVuSans-65" x="1535.005859"/>
    </g>
   </g>
  </g>
  <g id="axes_2">
   <g id="patch_11">
    <path d="M 319.0694 156.41054 
Q 425.700035 156.41054 531.212637 156.41054 
" clip-path="url(#p2b1b046f5d)" style="fill: none; stroke: #000000; stroke-linecap: round"/>
    <path d="M 527.212637 154.41054 
L 531.212637 156.41054 
L 527.212637 158.41054 
z
" clip-path="url(#p2b1b046f5d)" style="stroke: #000000; stroke-linecap: round"/>
   </g>
   <g id="patch_12">
    <path d="M 397.212633 48.608194 
Q 356.528221 99.135609 316.544994 148.792197 
" clip-path="url(#p2b1b046f5d)" style="fill: none; stroke: #000000; stroke-linecap: round"/>
    <path d="M 320.611413 146.93095 
L 316.544994 148.792197 
L 317.495848 144.422314 
z
" clip-path="url(#p2b1b046f5d)" style="stroke: #000000; stroke-linecap: round"/>
   </g>
   <g id="patch_13">
    <path d="M 442.089173 47.386464 
Q 379.584314 99.137799 317.940626 150.176121 
" clip-path="url(#p2b1b046f5d)" style="fill: none; stroke: #000000; stroke-linecap: round"/>
    <path d="M 322.297116 149.16568 
L 317.940626 150.176121 
L 319.746168 146.084664 
z
" clip-path="url(#p2b1b046f5d)" style="stroke: #000000; stroke-linecap: round"/>
   </g>
   <g id="patch_14">
    <path d="M 454.187367 48.608194 
Q 494.871779 99.135609 534.855006 148.792197 
" clip-path="url(#p2b1b046f5d)" style="fill: none; stroke: #000000; stroke-linecap: round"/>
    <path d="M 533.904152 144.422314 
L 534.855006 148.792197 
L 530.788587 146.93095 
z
" clip-path="url(#p2b1b046f5d)" style="stroke: #000000; stroke-linecap: round"/>
   </g>
   <g id="patch_15">
    <path d="M 498.109027 49.901584 
Q 517.932366 99.140199 537.338155 147.341676 
" clip-path="url(#p2b1b046f5d)" style="fill: none; stroke: #000000; stroke-linecap: round"/>
    <path d="M 537.699575 142.884168 
L 537.338155 147.341676 
L 533.989001 144.378035 
z
" clip-path="url(#p2b1b046f5d)" style="stroke: #000000; stroke-linecap: round"/>
   </g>
   <g id="PathCollection_2">
    <g clip-path="url(#p2b1b046f5d)">
     <use xlink:href="#mda3b06aa5d" x="310.410744" y="156.41054" style="fill: #ffffff; stroke: #ffffff"/>
     <use xlink:href="#mda3b06aa5d" x="540.989256" y="156.41054" style="fill: #ffffff; stroke: #ffffff"/>
     <use xlink:href="#mda3b06aa5d" x="402.642149" y="41.865085" style="fill: #ffffff; stroke: #ffffff"/>
     <use xlink:href="#mda3b06aa5d" x="448.757851" y="41.865085" style="fill: #ffffff; stroke: #ffffff"/>
     <use xlink:href="#mda3b06aa5d" x="494.873554" y="41.865085" style="fill: #ffffff; stroke: #ffffff"/>
     <use xlink:href="#mda3b06aa5d" x="356.526446" y="41.865085" style="fill: #ffffff; stroke: #ffffff"/>
    </g>
   </g>
   <g id="text_8">
    <g clip-path="url(#p2b1b046f5d)">
     <!-- $A$ -->
     <g transform="translate(305.580744 160.273665) scale(0.14 -0.14)">
      <use xlink:href="#DejaVuSans-Oblique-41" transform="translate(0 0.09375)"/>
     </g>
    </g>
   </g>
   <g id="text_9">
    <g clip-path="url(#p2b1b046f5d)">
     <!-- $Y$ -->
     <g transform="translate(536.649256 160.273665) scale(0.14 -0.14)">
      <use xlink:href="#DejaVuSans-Oblique-59" transform="translate(0 0.09375)"/>
     </g>
    </g>
   </g>
   <g id="text_10">
    <g clip-path="url(#p2b1b046f5d)">
     <!-- $X_A$ -->
     <g transform="translate(394.242149 45.72821) scale(0.14 -0.14)">
      <use xlink:href="#DejaVuSans-Oblique-58" transform="translate(0 0.09375)"/>
      <use xlink:href="#DejaVuSans-Oblique-41" transform="translate(68.505859 -16.3125) scale(0.7)"/>
     </g>
    </g>
   </g>
   <g id="text_11">
    <g clip-path="url(#p2b1b046f5d)">
     <!-- $X_{AY}$ -->
     <g transform="translate(437.417851 45.72821) scale(0.14 -0.14)">
      <use xlink:href="#DejaVuSans-Oblique-58" transform="translate(0 0.09375)"/>
      <use xlink:href="#DejaVuSans-Oblique-41" transform="translate(68.505859 -16.3125) scale(0.7)"/>
      <use xlink:href="#DejaVuSans-Oblique-59" transform="translate(116.391602 -16.3125) scale(0.7)"/>
     </g>
    </g>
   </g>
   <g id="text_12">
    <g clip-path="url(#p2b1b046f5d)">
     <!-- $X_Y$ -->
     <g transform="translate(486.893554 45.72821) scale(0.14 -0.14)">
      <use xlink:href="#DejaVuSans-Oblique-58" transform="translate(0 0.09375)"/>
      <use xlink:href="#DejaVuSans-Oblique-59" transform="translate(68.505859 -16.3125) scale(0.7)"/>
     </g>
    </g>
   </g>
   <g id="text_13">
    <g clip-path="url(#p2b1b046f5d)">
     <!-- $X_0$ -->
     <g transform="translate(348.406446 45.72821) scale(0.14 -0.14)">
      <use xlink:href="#DejaVuSans-Oblique-58" transform="translate(0 0.09375)"/>
      <use xlink:href="#DejaVuSans-30" transform="translate(68.505859 -16.3125) scale(0.7)"/>
     </g>
    </g>
   </g>
   <g id="text_14">
    <!-- Actual confounding structure -->
    <g transform="translate(324.102656 17.837813) scale(0.14 -0.14)">
     <defs>
      <path id="DejaVuSans-61" d="M 2194 1759 
Q 1497 1759 1228 1600 
Q 959 1441 959 1056 
Q 959 750 1161 570 
Q 1363 391 1709 391 
Q 2188 391 2477 730 
Q 2766 1069 2766 1631 
L 2766 1759 
L 2194 1759 
z
M 3341 1997 
L 3341 0 
L 2766 0 
L 2766 531 
Q 2569 213 2275 61 
Q 1981 -91 1556 -91 
Q 1019 -91 701 211 
Q 384 513 384 1019 
Q 384 1609 779 1909 
Q 1175 2209 1959 2209 
L 2766 2209 
L 2766 2266 
Q 2766 2663 2505 2880 
Q 2244 3097 1772 3097 
Q 1472 3097 1187 3025 
Q 903 2953 641 2809 
L 641 3341 
Q 956 3463 1253 3523 
Q 1550 3584 1831 3584 
Q 2591 3584 2966 3190 
Q 3341 2797 3341 1997 
z
" transform="scale(0.015625)"/>
      <path id="DejaVuSans-6c" d="M 603 4863 
L 1178 4863 
L 1178 0 
L 603 0 
L 603 4863 
z
" transform="scale(0.015625)"/>
     </defs>
     <use xlink:href="#DejaVuSans-41"/>
     <use xlink:href="#DejaVuSans-63" x="66.658203"/>
     <use xlink:href="#DejaVuSans-74" x="121.638672"/>
     <use xlink:href="#DejaVuSans-75" x="160.847656"/>
     <use xlink:href="#DejaVuSans-61" x="224.226562"/>
     <use xlink:href="#DejaVuSans-6c" x="285.505859"/>
     <use xlink:href="#DejaVuSans-20" x="313.289062"/>
     <use xlink:href="#DejaVuSans-63" x="345.076172"/>
     <use xlink:href="#DejaVuSans-6f" x="400.056641"/>
     <use xlink:href="#DejaVuSans-6e" x="461.238281"/>
     <use xlink:href="#DejaVuSans-66" x="524.617188"/>
     <use xlink:href="#DejaVuSans-6f" x="559.822266"/>
     <use xlink:href="#DejaVuSans-75" x="621.003906"/>
     <use xlink:href="#DejaVuSans-6e" x="684.382812"/>
     <use xlink:href="#DejaVuSans-64" x="747.761719"/>
     <use xlink:href="#DejaVuSans-69" x="811.238281"/>
     <use xlink:href="#DejaVuSans-6e" x="839.021484"/>
     <use xlink:href="#DejaVuSans-67" x="902.400391"/>
     <use xlink:href="#DejaVuSans-20" x="965.876953"/>
     <use xlink:href="#DejaVuSans-73" x="997.664062"/>
     <use xlink:href="#DejaVuSans-74" x="1049.763672"/>
     <use xlink:href="#DejaVuSans-72" x="1088.972656"/>
     <use xlink:href="#DejaVuSans-75" x="1130.085938"/>
     <use xlink:href="#DejaVuSans-63" x="1193.464844"/>
     <use xlink:href="#DejaVuSans-74" x="1248.445312"/>
     <use xlink:href="#DejaVuSans-75" x="1287.654297"/>
     <use xlink:href="#DejaVuSans-72" x="1351.033203"/>
     <use xlink:href="#DejaVuSans-65" x="1389.896484"/>
    </g>
   </g>
  </g>
 </g>
 <defs>
  <clipPath id="pdc7c85ce99">
   <rect x="7.2" y="29.837813" width="279" height="138.6"/>
  </clipPath>
  <clipPath id="p2b1b046f5d">
   <rect x="286.2" y="29.837813" width="279" height="138.6"/>
  </clipPath>
 </defs>
</svg>
