<?xml version="1.0" encoding="utf-8" standalone="no"?>
<!DOCTYPE svg PUBLIC "-//W3C//DTD SVG 1.1//EN"
  "http://www.w3.org/Graphics/SVG/1.1/DTD/svg11.dtd">
<svg xmlns:xlink="http://www.w3.org/1999/xlink" width="675.51701pt" height="207.034375pt" viewBox="0 0 675.51701 207.034375" xmlns="http://www.w3.org/2000/svg" version="1.1">
 <metadata>
  <rdf:RDF xmlns:dc="http://purl.org/dc/elements/1.1/" xmlns:cc="http://creativecommons.org/ns#" xmlns:rdf="http://www.w3.org/1999/02/22-rdf-syntax-ns#">
   <cc:Work>
    <dc:type rdf:resource="http://purl.org/dc/dcmitype/StillImage"/>
    <dc:date>2024-04-29T20:04:29.045878</dc:date>
    <dc:format>image/svg+xml</dc:format>
    <dc:creator>
     <cc:Agent>
      <dc:title>Matplotlib v3.8.4, https://matplotlib.org/</dc:title>
     </cc:Agent>
    </dc:creator>
   </cc:Work>
  </rdf:RDF>
 </metadata>
 <defs>
  <style type="text/css">*{stroke-linejoin: round; stroke-linecap: butt}</style>
 </defs>
 <g id="figure_1">
  <g id="patch_1">
   <path d="M 0 207.034375 
L 675.51701 207.034375 
L 675.51701 0 
L 0 0 
z
" style="fill: #ffffff"/>
  </g>
  <g id="axes_1">
   <g id="patch_2">
    <path d="M 44.078125 169.478125 
L 182.355604 169.478125 
L 182.355604 22.318125 
L 44.078125 22.318125 
z
" style="fill: #ffffff"/>
   </g>
   <g id="line2d_1">
    <path d="M 90.032728 169.478125 
L 90.032728 22.318125 
" clip-path="url(#pa233cd691b)" style="fill: none; stroke-dasharray: 5.55,2.4; stroke-dashoffset: 0; stroke: #999999; stroke-width: 1.5"/>
   </g>
   <g id="LineCollection_1">
    <path d="M 50.991743 151.083125 
L 56.103415 151.083125 
" clip-path="url(#pa233cd691b)" style="fill: none; stroke-dasharray: 5.55,2.4; stroke-dashoffset: 0; stroke: #cccccc; stroke-opacity: 0.3; stroke-width: 1.5; stroke-linecap: square"/>
    <path d="M 50.569879 40.713125 
L 176.070264 40.713125 
" clip-path="url(#pa233cd691b)" style="fill: none; stroke-dasharray: 5.55,2.4; stroke-dashoffset: 0; stroke: #cccccc; stroke-opacity: 0.300059; stroke-width: 1.5; stroke-linecap: square"/>
    <path d="M 50.363465 114.293125 
L 71.477657 114.293125 
" clip-path="url(#pa233cd691b)" style="fill: none; stroke-dasharray: 5.55,2.4; stroke-dashoffset: 0; stroke: #cccccc; stroke-opacity: 0.496898; stroke-width: 1.5; stroke-linecap: square"/>
    <path d="M 50.782923 77.503125 
L 133.949879 77.503125 
" clip-path="url(#pa233cd691b)" style="fill: none; stroke-dasharray: 5.55,2.4; stroke-dashoffset: 0; stroke: #cccccc; stroke-opacity: 0.95; stroke-width: 1.5; stroke-linecap: square"/>
   </g>
   <g id="PathCollection_1">
    <path d="M 50.991743 154.083125 
C 51.787352 154.083125 52.550482 153.767026 53.113063 153.204445 
C 53.675644 152.641865 53.991743 151.878734 53.991743 151.083125 
C 53.991743 150.287516 53.675644 149.524385 53.113063 148.961805 
C 52.550482 148.399224 51.787352 148.083125 50.991743 148.083125 
C 50.196133 148.083125 49.433003 148.399224 48.870422 148.961805 
C 48.307842 149.524385 47.991743 150.287516 47.991743 151.083125 
C 47.991743 151.878734 48.307842 152.641865 48.870422 153.204445 
C 49.433003 153.767026 50.196133 154.083125 50.991743 154.083125 
z
" clip-path="url(#pa233cd691b)" style="fill: #4c72b0; fill-opacity: 0.3; stroke: #4c72b0; stroke-opacity: 0.3; stroke-width: 0.5"/>
    <path d="M 50.569879 43.713125 
C 51.365489 43.713125 52.128619 43.397026 52.6912 42.834445 
C 53.253781 42.271865 53.569879 41.508734 53.569879 40.713125 
C 53.569879 39.917516 53.253781 39.154385 52.6912 38.591805 
C 52.128619 38.029224 51.365489 37.713125 50.569879 37.713125 
C 49.77427 37.713125 49.01114 38.029224 48.448559 38.591805 
C 47.885978 39.154385 47.569879 39.917516 47.569879 40.713125 
C 47.569879 41.508734 47.885978 42.271865 48.448559 42.834445 
C 49.01114 43.397026 49.77427 43.713125 50.569879 43.713125 
z
" clip-path="url(#pa233cd691b)" style="fill: #4c72b0; fill-opacity: 0.300059; stroke: #4c72b0; stroke-opacity: 0.300059; stroke-width: 0.5"/>
    <path d="M 50.363465 117.293125 
C 51.159074 117.293125 51.922205 116.977026 52.484785 116.414445 
C 53.047366 115.851865 53.363465 115.088734 53.363465 114.293125 
C 53.363465 113.497516 53.047366 112.734385 52.484785 112.171805 
C 51.922205 111.609224 51.159074 111.293125 50.363465 111.293125 
C 49.567856 111.293125 48.804725 111.609224 48.242145 112.171805 
C 47.679564 112.734385 47.363465 113.497516 47.363465 114.293125 
C 47.363465 115.088734 47.679564 115.851865 48.242145 116.414445 
C 48.804725 116.977026 49.567856 117.293125 50.363465 117.293125 
z
" clip-path="url(#pa233cd691b)" style="fill: #4c72b0; fill-opacity: 0.496898; stroke: #4c72b0; stroke-opacity: 0.496898; stroke-width: 0.5"/>
    <path d="M 50.782923 80.503125 
C 51.578532 80.503125 52.341662 80.187026 52.904243 79.624445 
C 53.466824 79.061865 53.782923 78.298734 53.782923 77.503125 
C 53.782923 76.707516 53.466824 75.944385 52.904243 75.381805 
C 52.341662 74.819224 51.578532 74.503125 50.782923 74.503125 
C 49.987313 74.503125 49.224183 74.819224 48.661602 75.381805 
C 48.099022 75.944385 47.782923 76.707516 47.782923 77.503125 
C 47.782923 78.298734 48.099022 79.061865 48.661602 79.624445 
C 49.224183 80.187026 49.987313 80.503125 50.782923 80.503125 
z
" clip-path="url(#pa233cd691b)" style="fill: #4c72b0; fill-opacity: 0.95; stroke: #4c72b0; stroke-opacity: 0.95; stroke-width: 0.5"/>
    <path d="M 56.103415 148.083125 
L 53.103415 154.083125 
L 59.103415 154.083125 
z
" clip-path="url(#pa233cd691b)" style="fill: #dd8452; fill-opacity: 0.3; stroke: #dd8452; stroke-opacity: 0.3; stroke-width: 0.5"/>
    <path d="M 176.070264 37.713125 
L 173.070264 43.713125 
L 179.070264 43.713125 
z
" clip-path="url(#pa233cd691b)" style="fill: #dd8452; fill-opacity: 0.300059; stroke: #dd8452; stroke-opacity: 0.300059; stroke-width: 0.5"/>
    <path d="M 71.477657 111.293125 
L 68.477657 117.293125 
L 74.477657 117.293125 
z
" clip-path="url(#pa233cd691b)" style="fill: #dd8452; fill-opacity: 0.496898; stroke: #dd8452; stroke-opacity: 0.496898; stroke-width: 0.5"/>
    <path d="M 133.949879 74.503125 
L 130.949879 80.503125 
L 136.949879 80.503125 
z
" clip-path="url(#pa233cd691b)" style="fill: #dd8452; fill-opacity: 0.95; stroke: #dd8452; stroke-opacity: 0.95; stroke-width: 0.5"/>
   </g>
   <g id="matplotlib.axis_1">
    <g id="xtick_1">
     <g id="line2d_2">
      <defs>
       <path id="m0c0fb3bcb2" d="M 0 0 
L 0 3.5 
" style="stroke: #000000; stroke-width: 0.8"/>
      </defs>
      <g>
       <use xlink:href="#m0c0fb3bcb2" x="49.976322" y="169.478125" style="stroke: #000000; stroke-width: 0.8"/>
      </g>
     </g>
     <g id="text_1">
      <!-- 0.0 -->
      <g transform="translate(42.024759 184.076563) scale(0.1 -0.1)">
       <defs>
        <path id="DejaVuSans-30" d="M 2034 4250 
Q 1547 4250 1301 3770 
Q 1056 3291 1056 2328 
Q 1056 1369 1301 889 
Q 1547 409 2034 409 
Q 2525 409 2770 889 
Q 3016 1369 3016 2328 
Q 3016 3291 2770 3770 
Q 2525 4250 2034 4250 
z
M 2034 4750 
Q 2819 4750 3233 4129 
Q 3647 3509 3647 2328 
Q 3647 1150 3233 529 
Q 2819 -91 2034 -91 
Q 1250 -91 836 529 
Q 422 1150 422 2328 
Q 422 3509 836 4129 
Q 1250 4750 2034 4750 
z
" transform="scale(0.015625)"/>
        <path id="DejaVuSans-2e" d="M 684 794 
L 1344 794 
L 1344 0 
L 684 0 
L 684 794 
z
" transform="scale(0.015625)"/>
       </defs>
       <use xlink:href="#DejaVuSans-30"/>
       <use xlink:href="#DejaVuSans-2e" x="63.623047"/>
       <use xlink:href="#DejaVuSans-30" x="95.410156"/>
      </g>
     </g>
    </g>
    <g id="xtick_2">
     <g id="line2d_3">
      <g>
       <use xlink:href="#m0c0fb3bcb2" x="90.032728" y="169.478125" style="stroke: #000000; stroke-width: 0.8"/>
      </g>
     </g>
     <g id="text_2">
      <!-- 0.1 -->
      <g transform="translate(82.081165 184.076563) scale(0.1 -0.1)">
       <defs>
        <path id="DejaVuSans-31" d="M 794 531 
L 1825 531 
L 1825 4091 
L 703 3866 
L 703 4441 
L 1819 4666 
L 2450 4666 
L 2450 531 
L 3481 531 
L 3481 0 
L 794 0 
L 794 531 
z
" transform="scale(0.015625)"/>
       </defs>
       <use xlink:href="#DejaVuSans-30"/>
       <use xlink:href="#DejaVuSans-2e" x="63.623047"/>
       <use xlink:href="#DejaVuSans-31" x="95.410156"/>
      </g>
     </g>
    </g>
    <g id="xtick_3">
     <g id="line2d_4">
      <g>
       <use xlink:href="#m0c0fb3bcb2" x="130.089134" y="169.478125" style="stroke: #000000; stroke-width: 0.8"/>
      </g>
     </g>
     <g id="text_3">
      <!-- 0.2 -->
      <g transform="translate(122.137571 184.076563) scale(0.1 -0.1)">
       <defs>
        <path id="DejaVuSans-32" d="M 1228 531 
L 3431 531 
L 3431 0 
L 469 0 
L 469 531 
Q 828 903 1448 1529 
Q 2069 2156 2228 2338 
Q 2531 2678 2651 2914 
Q 2772 3150 2772 3378 
Q 2772 3750 2511 3984 
Q 2250 4219 1831 4219 
Q 1534 4219 1204 4116 
Q 875 4013 500 3803 
L 500 4441 
Q 881 4594 1212 4672 
Q 1544 4750 1819 4750 
Q 2544 4750 2975 4387 
Q 3406 4025 3406 3419 
Q 3406 3131 3298 2873 
Q 3191 2616 2906 2266 
Q 2828 2175 2409 1742 
Q 1991 1309 1228 531 
z
" transform="scale(0.015625)"/>
       </defs>
       <use xlink:href="#DejaVuSans-30"/>
       <use xlink:href="#DejaVuSans-2e" x="63.623047"/>
       <use xlink:href="#DejaVuSans-32" x="95.410156"/>
      </g>
     </g>
    </g>
    <g id="xtick_4">
     <g id="line2d_5">
      <g>
       <use xlink:href="#m0c0fb3bcb2" x="170.14554" y="169.478125" style="stroke: #000000; stroke-width: 0.8"/>
      </g>
     </g>
     <g id="text_4">
      <!-- 0.3 -->
      <g transform="translate(162.193977 184.076563) scale(0.1 -0.1)">
       <defs>
        <path id="DejaVuSans-33" d="M 2597 2516 
Q 3050 2419 3304 2112 
Q 3559 1806 3559 1356 
Q 3559 666 3084 287 
Q 2609 -91 1734 -91 
Q 1441 -91 1130 -33 
Q 819 25 488 141 
L 488 750 
Q 750 597 1062 519 
Q 1375 441 1716 441 
Q 2309 441 2620 675 
Q 2931 909 2931 1356 
Q 2931 1769 2642 2001 
Q 2353 2234 1838 2234 
L 1294 2234 
L 1294 2753 
L 1863 2753 
Q 2328 2753 2575 2939 
Q 2822 3125 2822 3475 
Q 2822 3834 2567 4026 
Q 2313 4219 1838 4219 
Q 1578 4219 1281 4162 
Q 984 4106 628 3988 
L 628 4550 
Q 988 4650 1302 4700 
Q 1616 4750 1894 4750 
Q 2613 4750 3031 4423 
Q 3450 4097 3450 3541 
Q 3450 3153 3228 2886 
Q 3006 2619 2597 2516 
z
" transform="scale(0.015625)"/>
       </defs>
       <use xlink:href="#DejaVuSans-30"/>
       <use xlink:href="#DejaVuSans-2e" x="63.623047"/>
       <use xlink:href="#DejaVuSans-33" x="95.410156"/>
      </g>
     </g>
    </g>
   </g>
   <g id="matplotlib.axis_2">
    <g id="ytick_1">
     <g id="line2d_6">
      <defs>
       <path id="m0360a09e0a" d="M 0 0 
L -3.5 0 
" style="stroke: #000000; stroke-width: 0.8"/>
      </defs>
      <g>
       <use xlink:href="#m0360a09e0a" x="44.078125" y="40.713125" style="stroke: #000000; stroke-width: 0.8"/>
      </g>
     </g>
     <g id="text_5">
      <!-- $X_A$ -->
      <g transform="translate(25.078125 44.512344) scale(0.1 -0.1)">
       <defs>
        <path id="DejaVuSans-Oblique-58" d="M 878 4666 
L 1516 4666 
L 2316 2981 
L 3763 4666 
L 4500 4666 
L 2578 2438 
L 3738 0 
L 3103 0 
L 2163 1966 
L 459 0 
L -275 0 
L 1906 2509 
L 878 4666 
z
" transform="scale(0.015625)"/>
        <path id="DejaVuSans-Oblique-41" d="M 2356 4666 
L 3072 4666 
L 3938 0 
L 3278 0 
L 3084 1197 
L 984 1197 
L 325 0 
L -341 0 
L 2356 4666 
z
M 2584 4044 
L 1275 1722 
L 2988 1722 
L 2584 4044 
z
" transform="scale(0.015625)"/>
       </defs>
       <use xlink:href="#DejaVuSans-Oblique-58" transform="translate(0 0.09375)"/>
       <use xlink:href="#DejaVuSans-Oblique-41" transform="translate(68.505859 -16.3125) scale(0.7)"/>
      </g>
     </g>
    </g>
    <g id="ytick_2">
     <g id="line2d_7">
      <g>
       <use xlink:href="#m0360a09e0a" x="44.078125" y="77.503125" style="stroke: #000000; stroke-width: 0.8"/>
      </g>
     </g>
     <g id="text_6">
      <!-- $X_{AY}$ -->
      <g transform="translate(20.878125 81.302344) scale(0.1 -0.1)">
       <defs>
        <path id="DejaVuSans-Oblique-59" d="M 403 4666 
L 1081 4666 
L 1953 2747 
L 3616 4666 
L 4325 4666 
L 2209 2222 
L 1778 0 
L 1147 0 
L 1575 2222 
L 403 4666 
z
" transform="scale(0.015625)"/>
       </defs>
       <use xlink:href="#DejaVuSans-Oblique-58" transform="translate(0 0.09375)"/>
       <use xlink:href="#DejaVuSans-Oblique-41" transform="translate(68.505859 -16.3125) scale(0.7)"/>
       <use xlink:href="#DejaVuSans-Oblique-59" transform="translate(116.391602 -16.3125) scale(0.7)"/>
      </g>
     </g>
    </g>
    <g id="ytick_3">
     <g id="line2d_8">
      <g>
       <use xlink:href="#m0360a09e0a" x="44.078125" y="114.293125" style="stroke: #000000; stroke-width: 0.8"/>
      </g>
     </g>
     <g id="text_7">
      <!-- $X_Y$ -->
      <g transform="translate(25.678125 118.092344) scale(0.1 -0.1)">
       <use xlink:href="#DejaVuSans-Oblique-58" transform="translate(0 0.09375)"/>
       <use xlink:href="#DejaVuSans-Oblique-59" transform="translate(68.505859 -16.3125) scale(0.7)"/>
      </g>
     </g>
    </g>
    <g id="ytick_4">
     <g id="line2d_9">
      <g>
       <use xlink:href="#m0360a09e0a" x="44.078125" y="151.083125" style="stroke: #000000; stroke-width: 0.8"/>
      </g>
     </g>
     <g id="text_8">
      <!-- $X_0$ -->
      <g transform="translate(25.478125 154.882344) scale(0.1 -0.1)">
       <use xlink:href="#DejaVuSans-Oblique-58" transform="translate(0 0.09375)"/>
       <use xlink:href="#DejaVuSans-30" transform="translate(68.505859 -16.3125) scale(0.7)"/>
      </g>
     </g>
    </g>
    <g id="text_9">
     <!-- Covariate -->
     <g transform="translate(14.798437 120.017656) rotate(-90) scale(0.1 -0.1)">
      <defs>
       <path id="DejaVuSans-43" d="M 4122 4306 
L 4122 3641 
Q 3803 3938 3442 4084 
Q 3081 4231 2675 4231 
Q 1875 4231 1450 3742 
Q 1025 3253 1025 2328 
Q 1025 1406 1450 917 
Q 1875 428 2675 428 
Q 3081 428 3442 575 
Q 3803 722 4122 1019 
L 4122 359 
Q 3791 134 3420 21 
Q 3050 -91 2638 -91 
Q 1578 -91 968 557 
Q 359 1206 359 2328 
Q 359 3453 968 4101 
Q 1578 4750 2638 4750 
Q 3056 4750 3426 4639 
Q 3797 4528 4122 4306 
z
" transform="scale(0.015625)"/>
       <path id="DejaVuSans-6f" d="M 1959 3097 
Q 1497 3097 1228 2736 
Q 959 2375 959 1747 
Q 959 1119 1226 758 
Q 1494 397 1959 397 
Q 2419 397 2687 759 
Q 2956 1122 2956 1747 
Q 2956 2369 2687 2733 
Q 2419 3097 1959 3097 
z
M 1959 3584 
Q 2709 3584 3137 3096 
Q 3566 2609 3566 1747 
Q 3566 888 3137 398 
Q 2709 -91 1959 -91 
Q 1206 -91 779 398 
Q 353 888 353 1747 
Q 353 2609 779 3096 
Q 1206 3584 1959 3584 
z
" transform="scale(0.015625)"/>
       <path id="DejaVuSans-76" d="M 191 3500 
L 800 3500 
L 1894 563 
L 2988 3500 
L 3597 3500 
L 2284 0 
L 1503 0 
L 191 3500 
z
" transform="scale(0.015625)"/>
       <path id="DejaVuSans-61" d="M 2194 1759 
Q 1497 1759 1228 1600 
Q 959 1441 959 1056 
Q 959 750 1161 570 
Q 1363 391 1709 391 
Q 2188 391 2477 730 
Q 2766 1069 2766 1631 
L 2766 1759 
L 2194 1759 
z
M 3341 1997 
L 3341 0 
L 2766 0 
L 2766 531 
Q 2569 213 2275 61 
Q 1981 -91 1556 -91 
Q 1019 -91 701 211 
Q 384 513 384 1019 
Q 384 1609 779 1909 
Q 1175 2209 1959 2209 
L 2766 2209 
L 2766 2266 
Q 2766 2663 2505 2880 
Q 2244 3097 1772 3097 
Q 1472 3097 1187 3025 
Q 903 2953 641 2809 
L 641 3341 
Q 956 3463 1253 3523 
Q 1550 3584 1831 3584 
Q 2591 3584 2966 3190 
Q 3341 2797 3341 1997 
z
" transform="scale(0.015625)"/>
       <path id="DejaVuSans-72" d="M 2631 2963 
Q 2534 3019 2420 3045 
Q 2306 3072 2169 3072 
Q 1681 3072 1420 2755 
Q 1159 2438 1159 1844 
L 1159 0 
L 581 0 
L 581 3500 
L 1159 3500 
L 1159 2956 
Q 1341 3275 1631 3429 
Q 1922 3584 2338 3584 
Q 2397 3584 2469 3576 
Q 2541 3569 2628 3553 
L 2631 2963 
z
" transform="scale(0.015625)"/>
       <path id="DejaVuSans-69" d="M 603 3500 
L 1178 3500 
L 1178 0 
L 603 0 
L 603 3500 
z
M 603 4863 
L 1178 4863 
L 1178 4134 
L 603 4134 
L 603 4863 
z
" transform="scale(0.015625)"/>
       <path id="DejaVuSans-74" d="M 1172 4494 
L 1172 3500 
L 2356 3500 
L 2356 3053 
L 1172 3053 
L 1172 1153 
Q 1172 725 1289 603 
Q 1406 481 1766 481 
L 2356 481 
L 2356 0 
L 1766 0 
Q 1100 0 847 248 
Q 594 497 594 1153 
L 594 3053 
L 172 3053 
L 172 3500 
L 594 3500 
L 594 4494 
L 1172 4494 
z
" transform="scale(0.015625)"/>
       <path id="DejaVuSans-65" d="M 3597 1894 
L 3597 1613 
L 953 1613 
Q 991 1019 1311 708 
Q 1631 397 2203 397 
Q 2534 397 2845 478 
Q 3156 559 3463 722 
L 3463 178 
Q 3153 47 2828 -22 
Q 2503 -91 2169 -91 
Q 1331 -91 842 396 
Q 353 884 353 1716 
Q 353 2575 817 3079 
Q 1281 3584 2069 3584 
Q 2775 3584 3186 3129 
Q 3597 2675 3597 1894 
z
M 3022 2063 
Q 3016 2534 2758 2815 
Q 2500 3097 2075 3097 
Q 1594 3097 1305 2825 
Q 1016 2553 972 2059 
L 3022 2063 
z
" transform="scale(0.015625)"/>
      </defs>
      <use xlink:href="#DejaVuSans-43"/>
      <use xlink:href="#DejaVuSans-6f" x="69.824219"/>
      <use xlink:href="#DejaVuSans-76" x="131.005859"/>
      <use xlink:href="#DejaVuSans-61" x="190.185547"/>
      <use xlink:href="#DejaVuSans-72" x="251.464844"/>
      <use xlink:href="#DejaVuSans-69" x="292.578125"/>
      <use xlink:href="#DejaVuSans-61" x="320.361328"/>
      <use xlink:href="#DejaVuSans-74" x="381.640625"/>
      <use xlink:href="#DejaVuSans-65" x="420.849609"/>
     </g>
    </g>
   </g>
   <g id="patch_3">
    <path d="M 44.078125 169.478125 
L 44.078125 22.318125 
" style="fill: none; stroke: #000000; stroke-width: 0.8; stroke-linejoin: miter; stroke-linecap: square"/>
   </g>
   <g id="patch_4">
    <path d="M 182.355604 169.478125 
L 182.355604 22.318125 
" style="fill: none; stroke: #000000; stroke-width: 0.8; stroke-linejoin: miter; stroke-linecap: square"/>
   </g>
   <g id="patch_5">
    <path d="M 44.078125 169.478125 
L 182.355604 169.478125 
" style="fill: none; stroke: #000000; stroke-width: 0.8; stroke-linejoin: miter; stroke-linecap: square"/>
   </g>
   <g id="patch_6">
    <path d="M 44.078125 22.318125 
L 182.355604 22.318125 
" style="fill: none; stroke: #000000; stroke-width: 0.8; stroke-linejoin: miter; stroke-linecap: square"/>
   </g>
   <g id="text_10">
    <!-- Opacity -->
    <g transform="translate(90.138427 16.318125) scale(0.12 -0.12)">
     <defs>
      <path id="DejaVuSans-4f" d="M 2522 4238 
Q 1834 4238 1429 3725 
Q 1025 3213 1025 2328 
Q 1025 1447 1429 934 
Q 1834 422 2522 422 
Q 3209 422 3611 934 
Q 4013 1447 4013 2328 
Q 4013 3213 3611 3725 
Q 3209 4238 2522 4238 
z
M 2522 4750 
Q 3503 4750 4090 4092 
Q 4678 3434 4678 2328 
Q 4678 1225 4090 567 
Q 3503 -91 2522 -91 
Q 1538 -91 948 565 
Q 359 1222 359 2328 
Q 359 3434 948 4092 
Q 1538 4750 2522 4750 
z
" transform="scale(0.015625)"/>
      <path id="DejaVuSans-70" d="M 1159 525 
L 1159 -1331 
L 581 -1331 
L 581 3500 
L 1159 3500 
L 1159 2969 
Q 1341 3281 1617 3432 
Q 1894 3584 2278 3584 
Q 2916 3584 3314 3078 
Q 3713 2572 3713 1747 
Q 3713 922 3314 415 
Q 2916 -91 2278 -91 
Q 1894 -91 1617 61 
Q 1341 213 1159 525 
z
M 3116 1747 
Q 3116 2381 2855 2742 
Q 2594 3103 2138 3103 
Q 1681 3103 1420 2742 
Q 1159 2381 1159 1747 
Q 1159 1113 1420 752 
Q 1681 391 2138 391 
Q 2594 391 2855 752 
Q 3116 1113 3116 1747 
z
" transform="scale(0.015625)"/>
      <path id="DejaVuSans-63" d="M 3122 3366 
L 3122 2828 
Q 2878 2963 2633 3030 
Q 2388 3097 2138 3097 
Q 1578 3097 1268 2742 
Q 959 2388 959 1747 
Q 959 1106 1268 751 
Q 1578 397 2138 397 
Q 2388 397 2633 464 
Q 2878 531 3122 666 
L 3122 134 
Q 2881 22 2623 -34 
Q 2366 -91 2075 -91 
Q 1284 -91 818 406 
Q 353 903 353 1747 
Q 353 2603 823 3093 
Q 1294 3584 2113 3584 
Q 2378 3584 2631 3529 
Q 2884 3475 3122 3366 
z
" transform="scale(0.015625)"/>
      <path id="DejaVuSans-79" d="M 2059 -325 
Q 1816 -950 1584 -1140 
Q 1353 -1331 966 -1331 
L 506 -1331 
L 506 -850 
L 844 -850 
Q 1081 -850 1212 -737 
Q 1344 -625 1503 -206 
L 1606 56 
L 191 3500 
L 800 3500 
L 1894 763 
L 2988 3500 
L 3597 3500 
L 2059 -325 
z
" transform="scale(0.015625)"/>
     </defs>
     <use xlink:href="#DejaVuSans-4f"/>
     <use xlink:href="#DejaVuSans-70" x="78.710938"/>
     <use xlink:href="#DejaVuSans-61" x="142.1875"/>
     <use xlink:href="#DejaVuSans-63" x="203.466797"/>
     <use xlink:href="#DejaVuSans-69" x="258.447266"/>
     <use xlink:href="#DejaVuSans-74" x="286.230469"/>
     <use xlink:href="#DejaVuSans-79" x="325.439453"/>
    </g>
   </g>
  </g>
  <g id="axes_2">
   <g id="patch_7">
    <path d="M 232.478125 169.478125 
L 370.755604 169.478125 
L 370.755604 22.318125 
L 232.478125 22.318125 
z
" style="fill: #ffffff"/>
   </g>
   <g id="line2d_10">
    <path d="M 278.432728 169.478125 
L 278.432728 22.318125 
" clip-path="url(#p8a7adbde40)" style="fill: none; stroke-dasharray: 5.55,2.4; stroke-dashoffset: 0; stroke: #999999; stroke-width: 1.5"/>
   </g>
   <g id="LineCollection_2">
    <path d="M 239.391743 151.083125 
L 244.503415 151.083125 
" clip-path="url(#p8a7adbde40)" style="fill: none; stroke-dasharray: 2.775,1.2; stroke-dashoffset: 0; stroke: #cccccc; stroke-width: 0.75; stroke-linecap: square"/>
    <path d="M 238.969879 40.713125 
L 364.470264 40.713125 
" clip-path="url(#p8a7adbde40)" style="fill: none; stroke-dasharray: 2.775755,1.200326; stroke-dashoffset: 0; stroke: #cccccc; stroke-width: 0.750204; stroke-linecap: square"/>
    <path d="M 238.763465 114.293125 
L 259.877657 114.293125 
" clip-path="url(#p8a7adbde40)" style="fill: none; stroke-dasharray: 5.296812,2.290513; stroke-dashoffset: 0; stroke: #cccccc; stroke-width: 1.431571; stroke-linecap: square"/>
    <path d="M 239.182923 77.503125 
L 322.349879 77.503125 
" clip-path="url(#p8a7adbde40)" style="fill: none; stroke-dasharray: 11.1,4.8; stroke-dashoffset: 0; stroke: #cccccc; stroke-width: 3; stroke-linecap: square"/>
   </g>
   <g id="PathCollection_2">
    <path d="M 239.391743 152.083125 
C 239.656946 152.083125 239.911323 151.977759 240.098849 151.790232 
C 240.286376 151.602705 240.391743 151.348328 240.391743 151.083125 
C 240.391743 150.817922 240.286376 150.563545 240.098849 150.376018 
C 239.911323 150.188491 239.656946 150.083125 239.391743 150.083125 
C 239.12654 150.083125 238.872163 150.188491 238.684636 150.376018 
C 238.497109 150.563545 238.391743 150.817922 238.391743 151.083125 
C 238.391743 151.348328 238.497109 151.602705 238.684636 151.790232 
C 238.872163 151.977759 239.12654 152.083125 239.391743 152.083125 
z
" clip-path="url(#p8a7adbde40)" style="fill: #4c72b0; stroke: #4c72b0; stroke-width: 0.5"/>
    <path d="M 238.969879 41.713805 
C 239.235263 41.713805 239.489813 41.608367 239.677467 41.420712 
C 239.865121 41.233058 239.970559 40.978508 239.970559 40.713125 
C 239.970559 40.447742 239.865121 40.193192 239.677467 40.005538 
C 239.489813 39.817883 239.235263 39.712445 238.969879 39.712445 
C 238.704496 39.712445 238.449946 39.817883 238.262292 40.005538 
C 238.074638 40.193192 237.9692 40.447742 237.9692 40.713125 
C 237.9692 40.978508 238.074638 41.233058 238.262292 41.420712 
C 238.449946 41.608367 238.704496 41.713805 238.969879 41.713805 
z
" clip-path="url(#p8a7adbde40)" style="fill: #4c72b0; stroke: #4c72b0; stroke-width: 0.5"/>
    <path d="M 238.763465 116.647654 
C 239.387893 116.647654 239.986831 116.399566 240.428368 115.958028 
C 240.869906 115.516491 241.117994 114.917553 241.117994 114.293125 
C 241.117994 113.668697 240.869906 113.069759 240.428368 112.628222 
C 239.986831 112.186684 239.387893 111.938596 238.763465 111.938596 
C 238.139037 111.938596 237.540099 112.186684 237.098562 112.628222 
C 236.657024 113.069759 236.408936 113.668697 236.408936 114.293125 
C 236.408936 114.917553 236.657024 115.516491 237.098562 115.958028 
C 237.540099 116.399566 238.139037 116.647654 238.763465 116.647654 
z
" clip-path="url(#p8a7adbde40)" style="fill: #4c72b0; stroke: #4c72b0; stroke-width: 0.5"/>
    <path d="M 239.182923 81.503125 
C 240.243735 81.503125 241.261242 81.08166 242.01135 80.331552 
C 242.761458 79.581444 243.182923 78.563937 243.182923 77.503125 
C 243.182923 76.442313 242.761458 75.424806 242.01135 74.674698 
C 241.261242 73.92459 240.243735 73.503125 239.182923 73.503125 
C 238.12211 73.503125 237.104603 73.92459 236.354496 74.674698 
C 235.604388 75.424806 235.182923 76.442313 235.182923 77.503125 
C 235.182923 78.563937 235.604388 79.581444 236.354496 80.331552 
C 237.104603 81.08166 238.12211 81.503125 239.182923 81.503125 
z
" clip-path="url(#p8a7adbde40)" style="fill: #4c72b0; stroke: #4c72b0; stroke-width: 0.5"/>
    <path d="M 244.503415 150.083125 
L 243.503415 152.083125 
L 245.503415 152.083125 
z
" clip-path="url(#p8a7adbde40)" style="fill: #dd8452; stroke: #dd8452; stroke-width: 0.5"/>
    <path d="M 364.470264 39.712445 
L 363.469584 41.713805 
L 365.470944 41.713805 
z
" clip-path="url(#p8a7adbde40)" style="fill: #dd8452; stroke: #dd8452; stroke-width: 0.5"/>
    <path d="M 259.877657 111.938596 
L 257.523129 116.647654 
L 262.232186 116.647654 
z
" clip-path="url(#p8a7adbde40)" style="fill: #dd8452; stroke: #dd8452; stroke-width: 0.5"/>
    <path d="M 322.349879 73.503125 
L 318.349879 81.503125 
L 326.349879 81.503125 
z
" clip-path="url(#p8a7adbde40)" style="fill: #dd8452; stroke: #dd8452; stroke-width: 0.5"/>
   </g>
   <g id="matplotlib.axis_3">
    <g id="xtick_5">
     <g id="line2d_11">
      <g>
       <use xlink:href="#m0c0fb3bcb2" x="238.376322" y="169.478125" style="stroke: #000000; stroke-width: 0.8"/>
      </g>
     </g>
     <g id="text_11">
      <!-- 0.0 -->
      <g transform="translate(230.424759 184.076563) scale(0.1 -0.1)">
       <use xlink:href="#DejaVuSans-30"/>
       <use xlink:href="#DejaVuSans-2e" x="63.623047"/>
       <use xlink:href="#DejaVuSans-30" x="95.410156"/>
      </g>
     </g>
    </g>
    <g id="xtick_6">
     <g id="line2d_12">
      <g>
       <use xlink:href="#m0c0fb3bcb2" x="278.432728" y="169.478125" style="stroke: #000000; stroke-width: 0.8"/>
      </g>
     </g>
     <g id="text_12">
      <!-- 0.1 -->
      <g transform="translate(270.481165 184.076563) scale(0.1 -0.1)">
       <use xlink:href="#DejaVuSans-30"/>
       <use xlink:href="#DejaVuSans-2e" x="63.623047"/>
       <use xlink:href="#DejaVuSans-31" x="95.410156"/>
      </g>
     </g>
    </g>
    <g id="xtick_7">
     <g id="line2d_13">
      <g>
       <use xlink:href="#m0c0fb3bcb2" x="318.489134" y="169.478125" style="stroke: #000000; stroke-width: 0.8"/>
      </g>
     </g>
     <g id="text_13">
      <!-- 0.2 -->
      <g transform="translate(310.537571 184.076563) scale(0.1 -0.1)">
       <use xlink:href="#DejaVuSans-30"/>
       <use xlink:href="#DejaVuSans-2e" x="63.623047"/>
       <use xlink:href="#DejaVuSans-32" x="95.410156"/>
      </g>
     </g>
    </g>
    <g id="xtick_8">
     <g id="line2d_14">
      <g>
       <use xlink:href="#m0c0fb3bcb2" x="358.54554" y="169.478125" style="stroke: #000000; stroke-width: 0.8"/>
      </g>
     </g>
     <g id="text_14">
      <!-- 0.3 -->
      <g transform="translate(350.593977 184.076563) scale(0.1 -0.1)">
       <use xlink:href="#DejaVuSans-30"/>
       <use xlink:href="#DejaVuSans-2e" x="63.623047"/>
       <use xlink:href="#DejaVuSans-33" x="95.410156"/>
      </g>
     </g>
    </g>
    <g id="text_15">
     <!-- Absolute standardized mean difference -->
     <g transform="translate(203.200458 197.754688) scale(0.1 -0.1)">
      <defs>
       <path id="DejaVuSans-41" d="M 2188 4044 
L 1331 1722 
L 3047 1722 
L 2188 4044 
z
M 1831 4666 
L 2547 4666 
L 4325 0 
L 3669 0 
L 3244 1197 
L 1141 1197 
L 716 0 
L 50 0 
L 1831 4666 
z
" transform="scale(0.015625)"/>
       <path id="DejaVuSans-62" d="M 3116 1747 
Q 3116 2381 2855 2742 
Q 2594 3103 2138 3103 
Q 1681 3103 1420 2742 
Q 1159 2381 1159 1747 
Q 1159 1113 1420 752 
Q 1681 391 2138 391 
Q 2594 391 2855 752 
Q 3116 1113 3116 1747 
z
M 1159 2969 
Q 1341 3281 1617 3432 
Q 1894 3584 2278 3584 
Q 2916 3584 3314 3078 
Q 3713 2572 3713 1747 
Q 3713 922 3314 415 
Q 2916 -91 2278 -91 
Q 1894 -91 1617 61 
Q 1341 213 1159 525 
L 1159 0 
L 581 0 
L 581 4863 
L 1159 4863 
L 1159 2969 
z
" transform="scale(0.015625)"/>
       <path id="DejaVuSans-73" d="M 2834 3397 
L 2834 2853 
Q 2591 2978 2328 3040 
Q 2066 3103 1784 3103 
Q 1356 3103 1142 2972 
Q 928 2841 928 2578 
Q 928 2378 1081 2264 
Q 1234 2150 1697 2047 
L 1894 2003 
Q 2506 1872 2764 1633 
Q 3022 1394 3022 966 
Q 3022 478 2636 193 
Q 2250 -91 1575 -91 
Q 1294 -91 989 -36 
Q 684 19 347 128 
L 347 722 
Q 666 556 975 473 
Q 1284 391 1588 391 
Q 1994 391 2212 530 
Q 2431 669 2431 922 
Q 2431 1156 2273 1281 
Q 2116 1406 1581 1522 
L 1381 1569 
Q 847 1681 609 1914 
Q 372 2147 372 2553 
Q 372 3047 722 3315 
Q 1072 3584 1716 3584 
Q 2034 3584 2315 3537 
Q 2597 3491 2834 3397 
z
" transform="scale(0.015625)"/>
       <path id="DejaVuSans-6c" d="M 603 4863 
L 1178 4863 
L 1178 0 
L 603 0 
L 603 4863 
z
" transform="scale(0.015625)"/>
       <path id="DejaVuSans-75" d="M 544 1381 
L 544 3500 
L 1119 3500 
L 1119 1403 
Q 1119 906 1312 657 
Q 1506 409 1894 409 
Q 2359 409 2629 706 
Q 2900 1003 2900 1516 
L 2900 3500 
L 3475 3500 
L 3475 0 
L 2900 0 
L 2900 538 
Q 2691 219 2414 64 
Q 2138 -91 1772 -91 
Q 1169 -91 856 284 
Q 544 659 544 1381 
z
M 1991 3584 
L 1991 3584 
z
" transform="scale(0.015625)"/>
       <path id="DejaVuSans-20" transform="scale(0.015625)"/>
       <path id="DejaVuSans-6e" d="M 3513 2113 
L 3513 0 
L 2938 0 
L 2938 2094 
Q 2938 2591 2744 2837 
Q 2550 3084 2163 3084 
Q 1697 3084 1428 2787 
Q 1159 2491 1159 1978 
L 1159 0 
L 581 0 
L 581 3500 
L 1159 3500 
L 1159 2956 
Q 1366 3272 1645 3428 
Q 1925 3584 2291 3584 
Q 2894 3584 3203 3211 
Q 3513 2838 3513 2113 
z
" transform="scale(0.015625)"/>
       <path id="DejaVuSans-64" d="M 2906 2969 
L 2906 4863 
L 3481 4863 
L 3481 0 
L 2906 0 
L 2906 525 
Q 2725 213 2448 61 
Q 2172 -91 1784 -91 
Q 1150 -91 751 415 
Q 353 922 353 1747 
Q 353 2572 751 3078 
Q 1150 3584 1784 3584 
Q 2172 3584 2448 3432 
Q 2725 3281 2906 2969 
z
M 947 1747 
Q 947 1113 1208 752 
Q 1469 391 1925 391 
Q 2381 391 2643 752 
Q 2906 1113 2906 1747 
Q 2906 2381 2643 2742 
Q 2381 3103 1925 3103 
Q 1469 3103 1208 2742 
Q 947 2381 947 1747 
z
" transform="scale(0.015625)"/>
       <path id="DejaVuSans-7a" d="M 353 3500 
L 3084 3500 
L 3084 2975 
L 922 459 
L 3084 459 
L 3084 0 
L 275 0 
L 275 525 
L 2438 3041 
L 353 3041 
L 353 3500 
z
" transform="scale(0.015625)"/>
       <path id="DejaVuSans-6d" d="M 3328 2828 
Q 3544 3216 3844 3400 
Q 4144 3584 4550 3584 
Q 5097 3584 5394 3201 
Q 5691 2819 5691 2113 
L 5691 0 
L 5113 0 
L 5113 2094 
Q 5113 2597 4934 2840 
Q 4756 3084 4391 3084 
Q 3944 3084 3684 2787 
Q 3425 2491 3425 1978 
L 3425 0 
L 2847 0 
L 2847 2094 
Q 2847 2600 2669 2842 
Q 2491 3084 2119 3084 
Q 1678 3084 1418 2786 
Q 1159 2488 1159 1978 
L 1159 0 
L 581 0 
L 581 3500 
L 1159 3500 
L 1159 2956 
Q 1356 3278 1631 3431 
Q 1906 3584 2284 3584 
Q 2666 3584 2933 3390 
Q 3200 3197 3328 2828 
z
" transform="scale(0.015625)"/>
       <path id="DejaVuSans-66" d="M 2375 4863 
L 2375 4384 
L 1825 4384 
Q 1516 4384 1395 4259 
Q 1275 4134 1275 3809 
L 1275 3500 
L 2222 3500 
L 2222 3053 
L 1275 3053 
L 1275 0 
L 697 0 
L 697 3053 
L 147 3053 
L 147 3500 
L 697 3500 
L 697 3744 
Q 697 4328 969 4595 
Q 1241 4863 1831 4863 
L 2375 4863 
z
" transform="scale(0.015625)"/>
      </defs>
      <use xlink:href="#DejaVuSans-41"/>
      <use xlink:href="#DejaVuSans-62" x="68.408203"/>
      <use xlink:href="#DejaVuSans-73" x="131.884766"/>
      <use xlink:href="#DejaVuSans-6f" x="183.984375"/>
      <use xlink:href="#DejaVuSans-6c" x="245.166016"/>
      <use xlink:href="#DejaVuSans-75" x="272.949219"/>
      <use xlink:href="#DejaVuSans-74" x="336.328125"/>
      <use xlink:href="#DejaVuSans-65" x="375.537109"/>
      <use xlink:href="#DejaVuSans-20" x="437.060547"/>
      <use xlink:href="#DejaVuSans-73" x="468.847656"/>
      <use xlink:href="#DejaVuSans-74" x="520.947266"/>
      <use xlink:href="#DejaVuSans-61" x="560.15625"/>
      <use xlink:href="#DejaVuSans-6e" x="621.435547"/>
      <use xlink:href="#DejaVuSans-64" x="684.814453"/>
      <use xlink:href="#DejaVuSans-61" x="748.291016"/>
      <use xlink:href="#DejaVuSans-72" x="809.570312"/>
      <use xlink:href="#DejaVuSans-64" x="848.933594"/>
      <use xlink:href="#DejaVuSans-69" x="912.410156"/>
      <use xlink:href="#DejaVuSans-7a" x="940.193359"/>
      <use xlink:href="#DejaVuSans-65" x="992.683594"/>
      <use xlink:href="#DejaVuSans-64" x="1054.207031"/>
      <use xlink:href="#DejaVuSans-20" x="1117.683594"/>
      <use xlink:href="#DejaVuSans-6d" x="1149.470703"/>
      <use xlink:href="#DejaVuSans-65" x="1246.882812"/>
      <use xlink:href="#DejaVuSans-61" x="1308.40625"/>
      <use xlink:href="#DejaVuSans-6e" x="1369.685547"/>
      <use xlink:href="#DejaVuSans-20" x="1433.064453"/>
      <use xlink:href="#DejaVuSans-64" x="1464.851562"/>
      <use xlink:href="#DejaVuSans-69" x="1528.328125"/>
      <use xlink:href="#DejaVuSans-66" x="1556.111328"/>
      <use xlink:href="#DejaVuSans-66" x="1591.316406"/>
      <use xlink:href="#DejaVuSans-65" x="1626.521484"/>
      <use xlink:href="#DejaVuSans-72" x="1688.044922"/>
      <use xlink:href="#DejaVuSans-65" x="1726.908203"/>
      <use xlink:href="#DejaVuSans-6e" x="1788.431641"/>
      <use xlink:href="#DejaVuSans-63" x="1851.810547"/>
      <use xlink:href="#DejaVuSans-65" x="1906.791016"/>
     </g>
    </g>
   </g>
   <g id="matplotlib.axis_4">
    <g id="ytick_5">
     <g id="line2d_15">
      <g>
       <use xlink:href="#m0360a09e0a" x="232.478125" y="40.713125" style="stroke: #000000; stroke-width: 0.8"/>
      </g>
     </g>
     <g id="text_16">
      <!-- $X_A$ -->
      <g transform="translate(213.478125 44.512344) scale(0.1 -0.1)">
       <use xlink:href="#DejaVuSans-Oblique-58" transform="translate(0 0.09375)"/>
       <use xlink:href="#DejaVuSans-Oblique-41" transform="translate(68.505859 -16.3125) scale(0.7)"/>
      </g>
     </g>
    </g>
    <g id="ytick_6">
     <g id="line2d_16">
      <g>
       <use xlink:href="#m0360a09e0a" x="232.478125" y="77.503125" style="stroke: #000000; stroke-width: 0.8"/>
      </g>
     </g>
     <g id="text_17">
      <!-- $X_{AY}$ -->
      <g transform="translate(209.278125 81.302344) scale(0.1 -0.1)">
       <use xlink:href="#DejaVuSans-Oblique-58" transform="translate(0 0.09375)"/>
       <use xlink:href="#DejaVuSans-Oblique-41" transform="translate(68.505859 -16.3125) scale(0.7)"/>
       <use xlink:href="#DejaVuSans-Oblique-59" transform="translate(116.391602 -16.3125) scale(0.7)"/>
      </g>
     </g>
    </g>
    <g id="ytick_7">
     <g id="line2d_17">
      <g>
       <use xlink:href="#m0360a09e0a" x="232.478125" y="114.293125" style="stroke: #000000; stroke-width: 0.8"/>
      </g>
     </g>
     <g id="text_18">
      <!-- $X_Y$ -->
      <g transform="translate(214.078125 118.092344) scale(0.1 -0.1)">
       <use xlink:href="#DejaVuSans-Oblique-58" transform="translate(0 0.09375)"/>
       <use xlink:href="#DejaVuSans-Oblique-59" transform="translate(68.505859 -16.3125) scale(0.7)"/>
      </g>
     </g>
    </g>
    <g id="ytick_8">
     <g id="line2d_18">
      <g>
       <use xlink:href="#m0360a09e0a" x="232.478125" y="151.083125" style="stroke: #000000; stroke-width: 0.8"/>
      </g>
     </g>
     <g id="text_19">
      <!-- $X_0$ -->
      <g transform="translate(213.878125 154.882344) scale(0.1 -0.1)">
       <use xlink:href="#DejaVuSans-Oblique-58" transform="translate(0 0.09375)"/>
       <use xlink:href="#DejaVuSans-30" transform="translate(68.505859 -16.3125) scale(0.7)"/>
      </g>
     </g>
    </g>
    <g id="text_20">
     <!-- Covariate -->
     <g transform="translate(203.198437 120.017656) rotate(-90) scale(0.1 -0.1)">
      <use xlink:href="#DejaVuSans-43"/>
      <use xlink:href="#DejaVuSans-6f" x="69.824219"/>
      <use xlink:href="#DejaVuSans-76" x="131.005859"/>
      <use xlink:href="#DejaVuSans-61" x="190.185547"/>
      <use xlink:href="#DejaVuSans-72" x="251.464844"/>
      <use xlink:href="#DejaVuSans-69" x="292.578125"/>
      <use xlink:href="#DejaVuSans-61" x="320.361328"/>
      <use xlink:href="#DejaVuSans-74" x="381.640625"/>
      <use xlink:href="#DejaVuSans-65" x="420.849609"/>
     </g>
    </g>
   </g>
   <g id="patch_8">
    <path d="M 232.478125 169.478125 
L 232.478125 22.318125 
" style="fill: none; stroke: #000000; stroke-width: 0.8; stroke-linejoin: miter; stroke-linecap: square"/>
   </g>
   <g id="patch_9">
    <path d="M 370.755604 169.478125 
L 370.755604 22.318125 
" style="fill: none; stroke: #000000; stroke-width: 0.8; stroke-linejoin: miter; stroke-linecap: square"/>
   </g>
   <g id="patch_10">
    <path d="M 232.478125 169.478125 
L 370.755604 169.478125 
" style="fill: none; stroke: #000000; stroke-width: 0.8; stroke-linejoin: miter; stroke-linecap: square"/>
   </g>
   <g id="patch_11">
    <path d="M 232.478125 22.318125 
L 370.755604 22.318125 
" style="fill: none; stroke: #000000; stroke-width: 0.8; stroke-linejoin: miter; stroke-linecap: square"/>
   </g>
   <g id="text_21">
    <!-- Size -->
    <g transform="translate(289.29999 16.318125) scale(0.12 -0.12)">
     <defs>
      <path id="DejaVuSans-53" d="M 3425 4513 
L 3425 3897 
Q 3066 4069 2747 4153 
Q 2428 4238 2131 4238 
Q 1616 4238 1336 4038 
Q 1056 3838 1056 3469 
Q 1056 3159 1242 3001 
Q 1428 2844 1947 2747 
L 2328 2669 
Q 3034 2534 3370 2195 
Q 3706 1856 3706 1288 
Q 3706 609 3251 259 
Q 2797 -91 1919 -91 
Q 1588 -91 1214 -16 
Q 841 59 441 206 
L 441 856 
Q 825 641 1194 531 
Q 1563 422 1919 422 
Q 2459 422 2753 634 
Q 3047 847 3047 1241 
Q 3047 1584 2836 1778 
Q 2625 1972 2144 2069 
L 1759 2144 
Q 1053 2284 737 2584 
Q 422 2884 422 3419 
Q 422 4038 858 4394 
Q 1294 4750 2059 4750 
Q 2388 4750 2728 4690 
Q 3069 4631 3425 4513 
z
" transform="scale(0.015625)"/>
     </defs>
     <use xlink:href="#DejaVuSans-53"/>
     <use xlink:href="#DejaVuSans-69" x="63.476562"/>
     <use xlink:href="#DejaVuSans-7a" x="91.259766"/>
     <use xlink:href="#DejaVuSans-65" x="143.75"/>
    </g>
   </g>
  </g>
  <g id="axes_3">
   <g id="patch_12">
    <path d="M 420.878125 169.478125 
L 559.155604 169.478125 
L 559.155604 22.318125 
L 420.878125 22.318125 
z
" style="fill: #ffffff"/>
   </g>
   <g id="line2d_19">
    <path d="M 466.832728 169.478125 
L 466.832728 22.318125 
" clip-path="url(#pa9e793604e)" style="fill: none; stroke-dasharray: 5.55,2.4; stroke-dashoffset: 0; stroke: #999999; stroke-width: 1.5"/>
   </g>
   <g id="LineCollection_3">
    <path d="M 427.582923 40.713125 
L 510.749879 40.713125 
" clip-path="url(#pa9e793604e)" style="fill: none; stroke-dasharray: 5.55,2.4; stroke-dashoffset: 0; stroke: #cccccc; stroke-width: 1.5; stroke-linecap: square"/>
    <path d="M 427.163465 77.503125 
L 448.277657 77.503125 
" clip-path="url(#pa9e793604e)" style="fill: none; stroke-dasharray: 5.55,2.4; stroke-dashoffset: 0; stroke: #cccccc; stroke-width: 1.5; stroke-linecap: square"/>
    <path d="M 427.369879 114.293125 
L 552.870264 114.293125 
" clip-path="url(#pa9e793604e)" style="fill: none; stroke-dasharray: 5.55,2.4; stroke-dashoffset: 0; stroke: #cccccc; stroke-width: 1.5; stroke-linecap: square"/>
    <path d="M 427.791743 151.083125 
L 432.903415 151.083125 
" clip-path="url(#pa9e793604e)" style="fill: none; stroke-dasharray: 5.55,2.4; stroke-dashoffset: 0; stroke: #cccccc; stroke-width: 1.5; stroke-linecap: square"/>
   </g>
   <g id="PathCollection_3">
    <path d="M 427.791743 154.083125 
C 428.587352 154.083125 429.350482 153.767026 429.913063 153.204445 
C 430.475644 152.641865 430.791743 151.878734 430.791743 151.083125 
C 430.791743 150.287516 430.475644 149.524385 429.913063 148.961805 
C 429.350482 148.399224 428.587352 148.083125 427.791743 148.083125 
C 426.996133 148.083125 426.233003 148.399224 425.670422 148.961805 
C 425.107842 149.524385 424.791743 150.287516 424.791743 151.083125 
C 424.791743 151.878734 425.107842 152.641865 425.670422 153.204445 
C 426.233003 153.767026 426.996133 154.083125 427.791743 154.083125 
z
" clip-path="url(#pa9e793604e)" style="fill: #4c72b0; stroke: #4c72b0; stroke-width: 0.5"/>
    <path d="M 427.369879 117.293125 
C 428.165489 117.293125 428.928619 116.977026 429.4912 116.414445 
C 430.053781 115.851865 430.369879 115.088734 430.369879 114.293125 
C 430.369879 113.497516 430.053781 112.734385 429.4912 112.171805 
C 428.928619 111.609224 428.165489 111.293125 427.369879 111.293125 
C 426.57427 111.293125 425.81114 111.609224 425.248559 112.171805 
C 424.685978 112.734385 424.369879 113.497516 424.369879 114.293125 
C 424.369879 115.088734 424.685978 115.851865 425.248559 116.414445 
C 425.81114 116.977026 426.57427 117.293125 427.369879 117.293125 
z
" clip-path="url(#pa9e793604e)" style="fill: #4c72b0; stroke: #4c72b0; stroke-width: 0.5"/>
    <path d="M 427.163465 80.503125 
C 427.959074 80.503125 428.722205 80.187026 429.284785 79.624445 
C 429.847366 79.061865 430.163465 78.298734 430.163465 77.503125 
C 430.163465 76.707516 429.847366 75.944385 429.284785 75.381805 
C 428.722205 74.819224 427.959074 74.503125 427.163465 74.503125 
C 426.367856 74.503125 425.604725 74.819224 425.042145 75.381805 
C 424.479564 75.944385 424.163465 76.707516 424.163465 77.503125 
C 424.163465 78.298734 424.479564 79.061865 425.042145 79.624445 
C 425.604725 80.187026 426.367856 80.503125 427.163465 80.503125 
z
" clip-path="url(#pa9e793604e)" style="fill: #4c72b0; stroke: #4c72b0; stroke-width: 0.5"/>
    <path d="M 427.582923 43.713125 
C 428.378532 43.713125 429.141662 43.397026 429.704243 42.834445 
C 430.266824 42.271865 430.582923 41.508734 430.582923 40.713125 
C 430.582923 39.917516 430.266824 39.154385 429.704243 38.591805 
C 429.141662 38.029224 428.378532 37.713125 427.582923 37.713125 
C 426.787313 37.713125 426.024183 38.029224 425.461602 38.591805 
C 424.899022 39.154385 424.582923 39.917516 424.582923 40.713125 
C 424.582923 41.508734 424.899022 42.271865 425.461602 42.834445 
C 426.024183 43.397026 426.787313 43.713125 427.582923 43.713125 
z
" clip-path="url(#pa9e793604e)" style="fill: #4c72b0; stroke: #4c72b0; stroke-width: 0.5"/>
    <path d="M 432.903415 148.083125 
L 429.903415 154.083125 
L 435.903415 154.083125 
z
" clip-path="url(#pa9e793604e)" style="fill: #dd8452; stroke: #dd8452; stroke-width: 0.5"/>
    <path d="M 552.870264 111.293125 
L 549.870264 117.293125 
L 555.870264 117.293125 
z
" clip-path="url(#pa9e793604e)" style="fill: #dd8452; stroke: #dd8452; stroke-width: 0.5"/>
    <path d="M 448.277657 74.503125 
L 445.277657 80.503125 
L 451.277657 80.503125 
z
" clip-path="url(#pa9e793604e)" style="fill: #dd8452; stroke: #dd8452; stroke-width: 0.5"/>
    <path d="M 510.749879 37.713125 
L 507.749879 43.713125 
L 513.749879 43.713125 
z
" clip-path="url(#pa9e793604e)" style="fill: #dd8452; stroke: #dd8452; stroke-width: 0.5"/>
   </g>
   <g id="matplotlib.axis_5">
    <g id="xtick_9">
     <g id="line2d_20">
      <g>
       <use xlink:href="#m0c0fb3bcb2" x="426.776322" y="169.478125" style="stroke: #000000; stroke-width: 0.8"/>
      </g>
     </g>
     <g id="text_22">
      <!-- 0.0 -->
      <g transform="translate(418.824759 184.076563) scale(0.1 -0.1)">
       <use xlink:href="#DejaVuSans-30"/>
       <use xlink:href="#DejaVuSans-2e" x="63.623047"/>
       <use xlink:href="#DejaVuSans-30" x="95.410156"/>
      </g>
     </g>
    </g>
    <g id="xtick_10">
     <g id="line2d_21">
      <g>
       <use xlink:href="#m0c0fb3bcb2" x="466.832728" y="169.478125" style="stroke: #000000; stroke-width: 0.8"/>
      </g>
     </g>
     <g id="text_23">
      <!-- 0.1 -->
      <g transform="translate(458.881165 184.076563) scale(0.1 -0.1)">
       <use xlink:href="#DejaVuSans-30"/>
       <use xlink:href="#DejaVuSans-2e" x="63.623047"/>
       <use xlink:href="#DejaVuSans-31" x="95.410156"/>
      </g>
     </g>
    </g>
    <g id="xtick_11">
     <g id="line2d_22">
      <g>
       <use xlink:href="#m0c0fb3bcb2" x="506.889134" y="169.478125" style="stroke: #000000; stroke-width: 0.8"/>
      </g>
     </g>
     <g id="text_24">
      <!-- 0.2 -->
      <g transform="translate(498.937571 184.076563) scale(0.1 -0.1)">
       <use xlink:href="#DejaVuSans-30"/>
       <use xlink:href="#DejaVuSans-2e" x="63.623047"/>
       <use xlink:href="#DejaVuSans-32" x="95.410156"/>
      </g>
     </g>
    </g>
    <g id="xtick_12">
     <g id="line2d_23">
      <g>
       <use xlink:href="#m0c0fb3bcb2" x="546.94554" y="169.478125" style="stroke: #000000; stroke-width: 0.8"/>
      </g>
     </g>
     <g id="text_25">
      <!-- 0.3 -->
      <g transform="translate(538.993977 184.076563) scale(0.1 -0.1)">
       <use xlink:href="#DejaVuSans-30"/>
       <use xlink:href="#DejaVuSans-2e" x="63.623047"/>
       <use xlink:href="#DejaVuSans-33" x="95.410156"/>
      </g>
     </g>
    </g>
   </g>
   <g id="matplotlib.axis_6">
    <g id="ytick_9">
     <g id="line2d_24">
      <g>
       <use xlink:href="#m0360a09e0a" x="420.878125" y="40.713125" style="stroke: #000000; stroke-width: 0.8"/>
      </g>
     </g>
     <g id="text_26">
      <!-- $X_{AY}$ -->
      <g transform="translate(397.678125 44.512344) scale(0.1 -0.1)">
       <use xlink:href="#DejaVuSans-Oblique-58" transform="translate(0 0.09375)"/>
       <use xlink:href="#DejaVuSans-Oblique-41" transform="translate(68.505859 -16.3125) scale(0.7)"/>
       <use xlink:href="#DejaVuSans-Oblique-59" transform="translate(116.391602 -16.3125) scale(0.7)"/>
      </g>
     </g>
    </g>
    <g id="ytick_10">
     <g id="line2d_25">
      <g>
       <use xlink:href="#m0360a09e0a" x="420.878125" y="77.503125" style="stroke: #000000; stroke-width: 0.8"/>
      </g>
     </g>
     <g id="text_27">
      <!-- $X_Y$ -->
      <g transform="translate(402.478125 81.302344) scale(0.1 -0.1)">
       <use xlink:href="#DejaVuSans-Oblique-58" transform="translate(0 0.09375)"/>
       <use xlink:href="#DejaVuSans-Oblique-59" transform="translate(68.505859 -16.3125) scale(0.7)"/>
      </g>
     </g>
    </g>
    <g id="ytick_11">
     <g id="line2d_26">
      <g>
       <use xlink:href="#m0360a09e0a" x="420.878125" y="114.293125" style="stroke: #000000; stroke-width: 0.8"/>
      </g>
     </g>
     <g id="text_28">
      <!-- $X_A$ -->
      <g transform="translate(401.878125 118.092344) scale(0.1 -0.1)">
       <use xlink:href="#DejaVuSans-Oblique-58" transform="translate(0 0.09375)"/>
       <use xlink:href="#DejaVuSans-Oblique-41" transform="translate(68.505859 -16.3125) scale(0.7)"/>
      </g>
     </g>
    </g>
    <g id="ytick_12">
     <g id="line2d_27">
      <g>
       <use xlink:href="#m0360a09e0a" x="420.878125" y="151.083125" style="stroke: #000000; stroke-width: 0.8"/>
      </g>
     </g>
     <g id="text_29">
      <!-- $X_0$ -->
      <g transform="translate(402.278125 154.882344) scale(0.1 -0.1)">
       <use xlink:href="#DejaVuSans-Oblique-58" transform="translate(0 0.09375)"/>
       <use xlink:href="#DejaVuSans-30" transform="translate(68.505859 -16.3125) scale(0.7)"/>
      </g>
     </g>
    </g>
    <g id="text_30">
     <!-- Covariate -->
     <g transform="translate(391.598437 120.017656) rotate(-90) scale(0.1 -0.1)">
      <use xlink:href="#DejaVuSans-43"/>
      <use xlink:href="#DejaVuSans-6f" x="69.824219"/>
      <use xlink:href="#DejaVuSans-76" x="131.005859"/>
      <use xlink:href="#DejaVuSans-61" x="190.185547"/>
      <use xlink:href="#DejaVuSans-72" x="251.464844"/>
      <use xlink:href="#DejaVuSans-69" x="292.578125"/>
      <use xlink:href="#DejaVuSans-61" x="320.361328"/>
      <use xlink:href="#DejaVuSans-74" x="381.640625"/>
      <use xlink:href="#DejaVuSans-65" x="420.849609"/>
     </g>
    </g>
   </g>
   <g id="patch_13">
    <path d="M 420.878125 169.478125 
L 420.878125 22.318125 
" style="fill: none; stroke: #000000; stroke-width: 0.8; stroke-linejoin: miter; stroke-linecap: square"/>
   </g>
   <g id="patch_14">
    <path d="M 559.155604 169.478125 
L 559.155604 22.318125 
" style="fill: none; stroke: #000000; stroke-width: 0.8; stroke-linejoin: miter; stroke-linecap: square"/>
   </g>
   <g id="patch_15">
    <path d="M 420.878125 169.478125 
L 559.155604 169.478125 
" style="fill: none; stroke: #000000; stroke-width: 0.8; stroke-linejoin: miter; stroke-linecap: square"/>
   </g>
   <g id="patch_16">
    <path d="M 420.878125 22.318125 
L 559.155604 22.318125 
" style="fill: none; stroke: #000000; stroke-width: 0.8; stroke-linejoin: miter; stroke-linecap: square"/>
   </g>
   <g id="text_31">
    <!-- Order -->
    <g transform="translate(472.964677 16.318125) scale(0.12 -0.12)">
     <use xlink:href="#DejaVuSans-4f"/>
     <use xlink:href="#DejaVuSans-72" x="78.710938"/>
     <use xlink:href="#DejaVuSans-64" x="118.074219"/>
     <use xlink:href="#DejaVuSans-65" x="181.550781"/>
     <use xlink:href="#DejaVuSans-72" x="243.074219"/>
    </g>
   </g>
  </g>
  <g id="legend_1">
   <g id="patch_17">
    <path d="M 572.18 114.587187 
L 672.161406 114.587187 
Q 674.361406 114.587187 674.361406 112.387187 
L 674.361406 64.081562 
Q 674.361406 61.881563 672.161406 61.881563 
L 572.18 61.881563 
Q 569.98 61.881563 569.98 64.081562 
L 569.98 112.387187 
Q 569.98 114.587187 572.18 114.587187 
z
" style="fill: #ffffff; opacity: 0.8; stroke: #cccccc; stroke-linejoin: miter"/>
   </g>
   <g id="text_32">
    <!-- adjustment -->
    <g style="fill: #262626" transform="translate(588.046641 75.399687) scale(0.12 -0.12)">
     <defs>
      <path id="DejaVuSans-6a" d="M 603 3500 
L 1178 3500 
L 1178 -63 
Q 1178 -731 923 -1031 
Q 669 -1331 103 -1331 
L -116 -1331 
L -116 -844 
L 38 -844 
Q 366 -844 484 -692 
Q 603 -541 603 -63 
L 603 3500 
z
M 603 4863 
L 1178 4863 
L 1178 4134 
L 603 4134 
L 603 4863 
z
" transform="scale(0.015625)"/>
     </defs>
     <use xlink:href="#DejaVuSans-61"/>
     <use xlink:href="#DejaVuSans-64" x="61.279297"/>
     <use xlink:href="#DejaVuSans-6a" x="124.755859"/>
     <use xlink:href="#DejaVuSans-75" x="152.539062"/>
     <use xlink:href="#DejaVuSans-73" x="215.917969"/>
     <use xlink:href="#DejaVuSans-74" x="268.017578"/>
     <use xlink:href="#DejaVuSans-6d" x="307.226562"/>
     <use xlink:href="#DejaVuSans-65" x="404.638672"/>
     <use xlink:href="#DejaVuSans-6e" x="466.162109"/>
     <use xlink:href="#DejaVuSans-74" x="529.541016"/>
    </g>
   </g>
   <g id="PathCollection_4">
    <defs>
     <path id="m6ec53af142" d="M 0 3 
C 0.795609 3 1.55874 2.683901 2.12132 2.12132 
C 2.683901 1.55874 3 0.795609 3 0 
C 3 -0.795609 2.683901 -1.55874 2.12132 -2.12132 
C 1.55874 -2.683901 0.795609 -3 0 -3 
C -0.795609 -3 -1.55874 -2.683901 -2.12132 -2.12132 
C -2.683901 -1.55874 -3 -0.795609 -3 0 
C -3 0.795609 -2.683901 1.55874 -2.12132 2.12132 
C -1.55874 2.683901 -0.795609 3 0 3 
z
" style="stroke: #4c72b0; stroke-width: 0.5"/>
    </defs>
    <g>
     <use xlink:href="#m6ec53af142" x="585.38" y="88.866094" style="fill: #4c72b0; stroke: #4c72b0; stroke-width: 0.5"/>
    </g>
   </g>
   <g id="text_33">
    <!-- weighted -->
    <g style="fill: #262626" transform="translate(605.18 91.753594) scale(0.11 -0.11)">
     <defs>
      <path id="DejaVuSans-77" d="M 269 3500 
L 844 3500 
L 1563 769 
L 2278 3500 
L 2956 3500 
L 3675 769 
L 4391 3500 
L 4966 3500 
L 4050 0 
L 3372 0 
L 2619 2869 
L 1863 0 
L 1184 0 
L 269 3500 
z
" transform="scale(0.015625)"/>
      <path id="DejaVuSans-67" d="M 2906 1791 
Q 2906 2416 2648 2759 
Q 2391 3103 1925 3103 
Q 1463 3103 1205 2759 
Q 947 2416 947 1791 
Q 947 1169 1205 825 
Q 1463 481 1925 481 
Q 2391 481 2648 825 
Q 2906 1169 2906 1791 
z
M 3481 434 
Q 3481 -459 3084 -895 
Q 2688 -1331 1869 -1331 
Q 1566 -1331 1297 -1286 
Q 1028 -1241 775 -1147 
L 775 -588 
Q 1028 -725 1275 -790 
Q 1522 -856 1778 -856 
Q 2344 -856 2625 -561 
Q 2906 -266 2906 331 
L 2906 616 
Q 2728 306 2450 153 
Q 2172 0 1784 0 
Q 1141 0 747 490 
Q 353 981 353 1791 
Q 353 2603 747 3093 
Q 1141 3584 1784 3584 
Q 2172 3584 2450 3431 
Q 2728 3278 2906 2969 
L 2906 3500 
L 3481 3500 
L 3481 434 
z
" transform="scale(0.015625)"/>
      <path id="DejaVuSans-68" d="M 3513 2113 
L 3513 0 
L 2938 0 
L 2938 2094 
Q 2938 2591 2744 2837 
Q 2550 3084 2163 3084 
Q 1697 3084 1428 2787 
Q 1159 2491 1159 1978 
L 1159 0 
L 581 0 
L 581 4863 
L 1159 4863 
L 1159 2956 
Q 1366 3272 1645 3428 
Q 1925 3584 2291 3584 
Q 2894 3584 3203 3211 
Q 3513 2838 3513 2113 
z
" transform="scale(0.015625)"/>
     </defs>
     <use xlink:href="#DejaVuSans-77"/>
     <use xlink:href="#DejaVuSans-65" x="81.787109"/>
     <use xlink:href="#DejaVuSans-69" x="143.310547"/>
     <use xlink:href="#DejaVuSans-67" x="171.09375"/>
     <use xlink:href="#DejaVuSans-68" x="234.570312"/>
     <use xlink:href="#DejaVuSans-74" x="297.949219"/>
     <use xlink:href="#DejaVuSans-65" x="337.158203"/>
     <use xlink:href="#DejaVuSans-64" x="398.681641"/>
    </g>
   </g>
   <g id="PathCollection_5">
    <defs>
     <path id="m8be054cb9a" d="M 0 -3 
L -3 3 
L 3 3 
z
" style="stroke: #dd8452; stroke-width: 0.5"/>
    </defs>
    <g>
     <use xlink:href="#m8be054cb9a" x="585.38" y="105.012031" style="fill: #dd8452; stroke: #dd8452; stroke-width: 0.5"/>
    </g>
   </g>
   <g id="text_34">
    <!-- unweighted -->
    <g style="fill: #262626" transform="translate(605.18 107.899531) scale(0.11 -0.11)">
     <use xlink:href="#DejaVuSans-75"/>
     <use xlink:href="#DejaVuSans-6e" x="63.378906"/>
     <use xlink:href="#DejaVuSans-77" x="126.757812"/>
     <use xlink:href="#DejaVuSans-65" x="208.544922"/>
     <use xlink:href="#DejaVuSans-69" x="270.068359"/>
     <use xlink:href="#DejaVuSans-67" x="297.851562"/>
     <use xlink:href="#DejaVuSans-68" x="361.328125"/>
     <use xlink:href="#DejaVuSans-74" x="424.707031"/>
     <use xlink:href="#DejaVuSans-65" x="463.916016"/>
     <use xlink:href="#DejaVuSans-64" x="525.439453"/>
    </g>
   </g>
  </g>
 </g>
 <defs>
  <clipPath id="pa233cd691b">
   <rect x="44.078125" y="22.318125" width="138.277479" height="147.16"/>
  </clipPath>
  <clipPath id="p8a7adbde40">
   <rect x="232.478125" y="22.318125" width="138.277479" height="147.16"/>
  </clipPath>
  <clipPath id="pa9e793604e">
   <rect x="420.878125" y="22.318125" width="138.277479" height="147.16"/>
  </clipPath>
 </defs>
</svg>
