<?xml version="1.0" encoding="utf-8" standalone="no"?>
<!DOCTYPE svg PUBLIC "-//W3C//DTD SVG 1.1//EN"
  "http://www.w3.org/Graphics/SVG/1.1/DTD/svg11.dtd">
<svg xmlns:xlink="http://www.w3.org/1999/xlink" width="604.95701pt" height="207.034375pt" viewBox="0 0 604.95701 207.034375" xmlns="http://www.w3.org/2000/svg" version="1.1">
 <metadata>
  <rdf:RDF xmlns:dc="http://purl.org/dc/elements/1.1/" xmlns:cc="http://creativecommons.org/ns#" xmlns:rdf="http://www.w3.org/1999/02/22-rdf-syntax-ns#">
   <cc:Work>
    <dc:type rdf:resource="http://purl.org/dc/dcmitype/StillImage"/>
    <dc:date>2024-04-29T20:08:42.244569</dc:date>
    <dc:format>image/svg+xml</dc:format>
    <dc:creator>
     <cc:Agent>
      <dc:title>Matplotlib v3.8.4, https://matplotlib.org/</dc:title>
     </cc:Agent>
    </dc:creator>
   </cc:Work>
  </rdf:RDF>
 </metadata>
 <defs>
  <style type="text/css">*{stroke-linejoin: round; stroke-linecap: butt}</style>
 </defs>
 <g id="figure_1">
  <g id="patch_1">
   <path d="M 0 207.034375 
L 604.95701 207.034375 
L 604.95701 0 
L 0 0 
z
" style="fill: #ffffff"/>
  </g>
  <g id="axes_1">
   <g id="patch_2">
    <path d="M 44.078125 169.478125 
L 240.555604 169.478125 
L 240.555604 22.318125 
L 44.078125 22.318125 
z
" style="fill: #ffffff"/>
   </g>
   <g id="line2d_1">
    <path d="M 109.374691 169.478125 
L 109.374691 22.318125 
" clip-path="url(#p13c85e690a)" style="fill: none; stroke-dasharray: 5.55,2.4; stroke-dashoffset: 0; stroke: #999999; stroke-width: 1.5"/>
   </g>
   <g id="LineCollection_1">
    <path d="M 53.302212 40.713125 
L 231.62481 40.713125 
" clip-path="url(#p13c85e690a)" style="fill: none; stroke-dasharray: 5.55,2.4; stroke-dashoffset: 0; stroke: #cccccc; stroke-width: 1.5; stroke-linecap: square"/>
    <path d="M 53.604924 77.503125 
L 171.776256 77.503125 
" clip-path="url(#p13c85e690a)" style="fill: none; stroke-dasharray: 5.55,2.4; stroke-dashoffset: 0; stroke: #cccccc; stroke-width: 1.5; stroke-linecap: square"/>
    <path d="M 53.00892 114.293125 
L 83.009924 114.293125 
" clip-path="url(#p13c85e690a)" style="fill: none; stroke-dasharray: 5.55,2.4; stroke-dashoffset: 0; stroke: #cccccc; stroke-width: 1.5; stroke-linecap: square"/>
    <path d="M 53.901635 151.083125 
L 61.164773 151.083125 
" clip-path="url(#p13c85e690a)" style="fill: none; stroke-dasharray: 5.55,2.4; stroke-dashoffset: 0; stroke: #cccccc; stroke-width: 1.5; stroke-linecap: square"/>
   </g>
   <g id="PathCollection_1">
    <path d="M 53.901635 154.083125 
C 54.697244 154.083125 55.460374 153.767026 56.022955 153.204445 
C 56.585536 152.641865 56.901635 151.878734 56.901635 151.083125 
C 56.901635 150.287516 56.585536 149.524385 56.022955 148.961805 
C 55.460374 148.399224 54.697244 148.083125 53.901635 148.083125 
C 53.106025 148.083125 52.342895 148.399224 51.780314 148.961805 
C 51.217734 149.524385 50.901635 150.287516 50.901635 151.083125 
C 50.901635 151.878734 51.217734 152.641865 51.780314 153.204445 
C 52.342895 153.767026 53.106025 154.083125 53.901635 154.083125 
z
" clip-path="url(#p13c85e690a)" style="fill: #4c72b0; stroke: #4c72b0; stroke-width: 0.5"/>
    <path d="M 53.302212 43.713125 
C 54.097822 43.713125 54.860952 43.397026 55.423533 42.834445 
C 55.986113 42.271865 56.302212 41.508734 56.302212 40.713125 
C 56.302212 39.917516 55.986113 39.154385 55.423533 38.591805 
C 54.860952 38.029224 54.097822 37.713125 53.302212 37.713125 
C 52.506603 37.713125 51.743473 38.029224 51.180892 38.591805 
C 50.618311 39.154385 50.302212 39.917516 50.302212 40.713125 
C 50.302212 41.508734 50.618311 42.271865 51.180892 42.834445 
C 51.743473 43.397026 52.506603 43.713125 53.302212 43.713125 
z
" clip-path="url(#p13c85e690a)" style="fill: #4c72b0; stroke: #4c72b0; stroke-width: 0.5"/>
    <path d="M 53.00892 117.293125 
C 53.804529 117.293125 54.567659 116.977026 55.13024 116.414445 
C 55.692821 115.851865 56.00892 115.088734 56.00892 114.293125 
C 56.00892 113.497516 55.692821 112.734385 55.13024 112.171805 
C 54.567659 111.609224 53.804529 111.293125 53.00892 111.293125 
C 52.21331 111.293125 51.45018 111.609224 50.887599 112.171805 
C 50.325018 112.734385 50.00892 113.497516 50.00892 114.293125 
C 50.00892 115.088734 50.325018 115.851865 50.887599 116.414445 
C 51.45018 116.977026 52.21331 117.293125 53.00892 117.293125 
z
" clip-path="url(#p13c85e690a)" style="fill: #4c72b0; stroke: #4c72b0; stroke-width: 0.5"/>
    <path d="M 53.604924 80.503125 
C 54.400533 80.503125 55.163664 80.187026 55.726244 79.624445 
C 56.288825 79.061865 56.604924 78.298734 56.604924 77.503125 
C 56.604924 76.707516 56.288825 75.944385 55.726244 75.381805 
C 55.163664 74.819224 54.400533 74.503125 53.604924 74.503125 
C 52.809315 74.503125 52.046184 74.819224 51.483604 75.381805 
C 50.921023 75.944385 50.604924 76.707516 50.604924 77.503125 
C 50.604924 78.298734 50.921023 79.061865 51.483604 79.624445 
C 52.046184 80.187026 52.809315 80.503125 53.604924 80.503125 
z
" clip-path="url(#p13c85e690a)" style="fill: #4c72b0; stroke: #4c72b0; stroke-width: 0.5"/>
    <path d="M 61.164773 148.083125 
L 58.164773 154.083125 
L 64.164773 154.083125 
z
" clip-path="url(#p13c85e690a)" style="fill: #dd8452; stroke: #dd8452; stroke-width: 0.5"/>
    <path d="M 231.62481 37.713125 
L 228.62481 43.713125 
L 234.62481 43.713125 
z
" clip-path="url(#p13c85e690a)" style="fill: #dd8452; stroke: #dd8452; stroke-width: 0.5"/>
    <path d="M 83.009924 111.293125 
L 80.009924 117.293125 
L 86.009924 117.293125 
z
" clip-path="url(#p13c85e690a)" style="fill: #dd8452; stroke: #dd8452; stroke-width: 0.5"/>
    <path d="M 171.776256 74.503125 
L 168.776256 80.503125 
L 174.776256 80.503125 
z
" clip-path="url(#p13c85e690a)" style="fill: #dd8452; stroke: #dd8452; stroke-width: 0.5"/>
   </g>
   <g id="matplotlib.axis_1">
    <g id="xtick_1">
     <g id="line2d_2">
      <defs>
       <path id="me4ff2ff4d1" d="M 0 0 
L 0 3.5 
" style="stroke: #000000; stroke-width: 0.8"/>
      </defs>
      <g>
       <use xlink:href="#me4ff2ff4d1" x="52.458831" y="169.478125" style="stroke: #000000; stroke-width: 0.8"/>
      </g>
     </g>
     <g id="text_1">
      <!-- 0.0 -->
      <g transform="translate(44.507268 184.076563) scale(0.1 -0.1)">
       <defs>
        <path id="DejaVuSans-30" d="M 2034 4250 
Q 1547 4250 1301 3770 
Q 1056 3291 1056 2328 
Q 1056 1369 1301 889 
Q 1547 409 2034 409 
Q 2525 409 2770 889 
Q 3016 1369 3016 2328 
Q 3016 3291 2770 3770 
Q 2525 4250 2034 4250 
z
M 2034 4750 
Q 2819 4750 3233 4129 
Q 3647 3509 3647 2328 
Q 3647 1150 3233 529 
Q 2819 -91 2034 -91 
Q 1250 -91 836 529 
Q 422 1150 422 2328 
Q 422 3509 836 4129 
Q 1250 4750 2034 4750 
z
" transform="scale(0.015625)"/>
        <path id="DejaVuSans-2e" d="M 684 794 
L 1344 794 
L 1344 0 
L 684 0 
L 684 794 
z
" transform="scale(0.015625)"/>
       </defs>
       <use xlink:href="#DejaVuSans-30"/>
       <use xlink:href="#DejaVuSans-2e" x="63.623047"/>
       <use xlink:href="#DejaVuSans-30" x="95.410156"/>
      </g>
     </g>
    </g>
    <g id="xtick_2">
     <g id="line2d_3">
      <g>
       <use xlink:href="#me4ff2ff4d1" x="109.374691" y="169.478125" style="stroke: #000000; stroke-width: 0.8"/>
      </g>
     </g>
     <g id="text_2">
      <!-- 0.1 -->
      <g transform="translate(101.423129 184.076563) scale(0.1 -0.1)">
       <defs>
        <path id="DejaVuSans-31" d="M 794 531 
L 1825 531 
L 1825 4091 
L 703 3866 
L 703 4441 
L 1819 4666 
L 2450 4666 
L 2450 531 
L 3481 531 
L 3481 0 
L 794 0 
L 794 531 
z
" transform="scale(0.015625)"/>
       </defs>
       <use xlink:href="#DejaVuSans-30"/>
       <use xlink:href="#DejaVuSans-2e" x="63.623047"/>
       <use xlink:href="#DejaVuSans-31" x="95.410156"/>
      </g>
     </g>
    </g>
    <g id="xtick_3">
     <g id="line2d_4">
      <g>
       <use xlink:href="#me4ff2ff4d1" x="166.290551" y="169.478125" style="stroke: #000000; stroke-width: 0.8"/>
      </g>
     </g>
     <g id="text_3">
      <!-- 0.2 -->
      <g transform="translate(158.338989 184.076563) scale(0.1 -0.1)">
       <defs>
        <path id="DejaVuSans-32" d="M 1228 531 
L 3431 531 
L 3431 0 
L 469 0 
L 469 531 
Q 828 903 1448 1529 
Q 2069 2156 2228 2338 
Q 2531 2678 2651 2914 
Q 2772 3150 2772 3378 
Q 2772 3750 2511 3984 
Q 2250 4219 1831 4219 
Q 1534 4219 1204 4116 
Q 875 4013 500 3803 
L 500 4441 
Q 881 4594 1212 4672 
Q 1544 4750 1819 4750 
Q 2544 4750 2975 4387 
Q 3406 4025 3406 3419 
Q 3406 3131 3298 2873 
Q 3191 2616 2906 2266 
Q 2828 2175 2409 1742 
Q 1991 1309 1228 531 
z
" transform="scale(0.015625)"/>
       </defs>
       <use xlink:href="#DejaVuSans-30"/>
       <use xlink:href="#DejaVuSans-2e" x="63.623047"/>
       <use xlink:href="#DejaVuSans-32" x="95.410156"/>
      </g>
     </g>
    </g>
    <g id="xtick_4">
     <g id="line2d_5">
      <g>
       <use xlink:href="#me4ff2ff4d1" x="223.206412" y="169.478125" style="stroke: #000000; stroke-width: 0.8"/>
      </g>
     </g>
     <g id="text_4">
      <!-- 0.3 -->
      <g transform="translate(215.254849 184.076563) scale(0.1 -0.1)">
       <defs>
        <path id="DejaVuSans-33" d="M 2597 2516 
Q 3050 2419 3304 2112 
Q 3559 1806 3559 1356 
Q 3559 666 3084 287 
Q 2609 -91 1734 -91 
Q 1441 -91 1130 -33 
Q 819 25 488 141 
L 488 750 
Q 750 597 1062 519 
Q 1375 441 1716 441 
Q 2309 441 2620 675 
Q 2931 909 2931 1356 
Q 2931 1769 2642 2001 
Q 2353 2234 1838 2234 
L 1294 2234 
L 1294 2753 
L 1863 2753 
Q 2328 2753 2575 2939 
Q 2822 3125 2822 3475 
Q 2822 3834 2567 4026 
Q 2313 4219 1838 4219 
Q 1578 4219 1281 4162 
Q 984 4106 628 3988 
L 628 4550 
Q 988 4650 1302 4700 
Q 1616 4750 1894 4750 
Q 2613 4750 3031 4423 
Q 3450 4097 3450 3541 
Q 3450 3153 3228 2886 
Q 3006 2619 2597 2516 
z
" transform="scale(0.015625)"/>
       </defs>
       <use xlink:href="#DejaVuSans-30"/>
       <use xlink:href="#DejaVuSans-2e" x="63.623047"/>
       <use xlink:href="#DejaVuSans-33" x="95.410156"/>
      </g>
     </g>
    </g>
    <g id="text_5">
     <!-- Absolute standardized mean difference -->
     <g transform="translate(43.900458 197.754688) scale(0.1 -0.1)">
      <defs>
       <path id="DejaVuSans-41" d="M 2188 4044 
L 1331 1722 
L 3047 1722 
L 2188 4044 
z
M 1831 4666 
L 2547 4666 
L 4325 0 
L 3669 0 
L 3244 1197 
L 1141 1197 
L 716 0 
L 50 0 
L 1831 4666 
z
" transform="scale(0.015625)"/>
       <path id="DejaVuSans-62" d="M 3116 1747 
Q 3116 2381 2855 2742 
Q 2594 3103 2138 3103 
Q 1681 3103 1420 2742 
Q 1159 2381 1159 1747 
Q 1159 1113 1420 752 
Q 1681 391 2138 391 
Q 2594 391 2855 752 
Q 3116 1113 3116 1747 
z
M 1159 2969 
Q 1341 3281 1617 3432 
Q 1894 3584 2278 3584 
Q 2916 3584 3314 3078 
Q 3713 2572 3713 1747 
Q 3713 922 3314 415 
Q 2916 -91 2278 -91 
Q 1894 -91 1617 61 
Q 1341 213 1159 525 
L 1159 0 
L 581 0 
L 581 4863 
L 1159 4863 
L 1159 2969 
z
" transform="scale(0.015625)"/>
       <path id="DejaVuSans-73" d="M 2834 3397 
L 2834 2853 
Q 2591 2978 2328 3040 
Q 2066 3103 1784 3103 
Q 1356 3103 1142 2972 
Q 928 2841 928 2578 
Q 928 2378 1081 2264 
Q 1234 2150 1697 2047 
L 1894 2003 
Q 2506 1872 2764 1633 
Q 3022 1394 3022 966 
Q 3022 478 2636 193 
Q 2250 -91 1575 -91 
Q 1294 -91 989 -36 
Q 684 19 347 128 
L 347 722 
Q 666 556 975 473 
Q 1284 391 1588 391 
Q 1994 391 2212 530 
Q 2431 669 2431 922 
Q 2431 1156 2273 1281 
Q 2116 1406 1581 1522 
L 1381 1569 
Q 847 1681 609 1914 
Q 372 2147 372 2553 
Q 372 3047 722 3315 
Q 1072 3584 1716 3584 
Q 2034 3584 2315 3537 
Q 2597 3491 2834 3397 
z
" transform="scale(0.015625)"/>
       <path id="DejaVuSans-6f" d="M 1959 3097 
Q 1497 3097 1228 2736 
Q 959 2375 959 1747 
Q 959 1119 1226 758 
Q 1494 397 1959 397 
Q 2419 397 2687 759 
Q 2956 1122 2956 1747 
Q 2956 2369 2687 2733 
Q 2419 3097 1959 3097 
z
M 1959 3584 
Q 2709 3584 3137 3096 
Q 3566 2609 3566 1747 
Q 3566 888 3137 398 
Q 2709 -91 1959 -91 
Q 1206 -91 779 398 
Q 353 888 353 1747 
Q 353 2609 779 3096 
Q 1206 3584 1959 3584 
z
" transform="scale(0.015625)"/>
       <path id="DejaVuSans-6c" d="M 603 4863 
L 1178 4863 
L 1178 0 
L 603 0 
L 603 4863 
z
" transform="scale(0.015625)"/>
       <path id="DejaVuSans-75" d="M 544 1381 
L 544 3500 
L 1119 3500 
L 1119 1403 
Q 1119 906 1312 657 
Q 1506 409 1894 409 
Q 2359 409 2629 706 
Q 2900 1003 2900 1516 
L 2900 3500 
L 3475 3500 
L 3475 0 
L 2900 0 
L 2900 538 
Q 2691 219 2414 64 
Q 2138 -91 1772 -91 
Q 1169 -91 856 284 
Q 544 659 544 1381 
z
M 1991 3584 
L 1991 3584 
z
" transform="scale(0.015625)"/>
       <path id="DejaVuSans-74" d="M 1172 4494 
L 1172 3500 
L 2356 3500 
L 2356 3053 
L 1172 3053 
L 1172 1153 
Q 1172 725 1289 603 
Q 1406 481 1766 481 
L 2356 481 
L 2356 0 
L 1766 0 
Q 1100 0 847 248 
Q 594 497 594 1153 
L 594 3053 
L 172 3053 
L 172 3500 
L 594 3500 
L 594 4494 
L 1172 4494 
z
" transform="scale(0.015625)"/>
       <path id="DejaVuSans-65" d="M 3597 1894 
L 3597 1613 
L 953 1613 
Q 991 1019 1311 708 
Q 1631 397 2203 397 
Q 2534 397 2845 478 
Q 3156 559 3463 722 
L 3463 178 
Q 3153 47 2828 -22 
Q 2503 -91 2169 -91 
Q 1331 -91 842 396 
Q 353 884 353 1716 
Q 353 2575 817 3079 
Q 1281 3584 2069 3584 
Q 2775 3584 3186 3129 
Q 3597 2675 3597 1894 
z
M 3022 2063 
Q 3016 2534 2758 2815 
Q 2500 3097 2075 3097 
Q 1594 3097 1305 2825 
Q 1016 2553 972 2059 
L 3022 2063 
z
" transform="scale(0.015625)"/>
       <path id="DejaVuSans-20" transform="scale(0.015625)"/>
       <path id="DejaVuSans-61" d="M 2194 1759 
Q 1497 1759 1228 1600 
Q 959 1441 959 1056 
Q 959 750 1161 570 
Q 1363 391 1709 391 
Q 2188 391 2477 730 
Q 2766 1069 2766 1631 
L 2766 1759 
L 2194 1759 
z
M 3341 1997 
L 3341 0 
L 2766 0 
L 2766 531 
Q 2569 213 2275 61 
Q 1981 -91 1556 -91 
Q 1019 -91 701 211 
Q 384 513 384 1019 
Q 384 1609 779 1909 
Q 1175 2209 1959 2209 
L 2766 2209 
L 2766 2266 
Q 2766 2663 2505 2880 
Q 2244 3097 1772 3097 
Q 1472 3097 1187 3025 
Q 903 2953 641 2809 
L 641 3341 
Q 956 3463 1253 3523 
Q 1550 3584 1831 3584 
Q 2591 3584 2966 3190 
Q 3341 2797 3341 1997 
z
" transform="scale(0.015625)"/>
       <path id="DejaVuSans-6e" d="M 3513 2113 
L 3513 0 
L 2938 0 
L 2938 2094 
Q 2938 2591 2744 2837 
Q 2550 3084 2163 3084 
Q 1697 3084 1428 2787 
Q 1159 2491 1159 1978 
L 1159 0 
L 581 0 
L 581 3500 
L 1159 3500 
L 1159 2956 
Q 1366 3272 1645 3428 
Q 1925 3584 2291 3584 
Q 2894 3584 3203 3211 
Q 3513 2838 3513 2113 
z
" transform="scale(0.015625)"/>
       <path id="DejaVuSans-64" d="M 2906 2969 
L 2906 4863 
L 3481 4863 
L 3481 0 
L 2906 0 
L 2906 525 
Q 2725 213 2448 61 
Q 2172 -91 1784 -91 
Q 1150 -91 751 415 
Q 353 922 353 1747 
Q 353 2572 751 3078 
Q 1150 3584 1784 3584 
Q 2172 3584 2448 3432 
Q 2725 3281 2906 2969 
z
M 947 1747 
Q 947 1113 1208 752 
Q 1469 391 1925 391 
Q 2381 391 2643 752 
Q 2906 1113 2906 1747 
Q 2906 2381 2643 2742 
Q 2381 3103 1925 3103 
Q 1469 3103 1208 2742 
Q 947 2381 947 1747 
z
" transform="scale(0.015625)"/>
       <path id="DejaVuSans-72" d="M 2631 2963 
Q 2534 3019 2420 3045 
Q 2306 3072 2169 3072 
Q 1681 3072 1420 2755 
Q 1159 2438 1159 1844 
L 1159 0 
L 581 0 
L 581 3500 
L 1159 3500 
L 1159 2956 
Q 1341 3275 1631 3429 
Q 1922 3584 2338 3584 
Q 2397 3584 2469 3576 
Q 2541 3569 2628 3553 
L 2631 2963 
z
" transform="scale(0.015625)"/>
       <path id="DejaVuSans-69" d="M 603 3500 
L 1178 3500 
L 1178 0 
L 603 0 
L 603 3500 
z
M 603 4863 
L 1178 4863 
L 1178 4134 
L 603 4134 
L 603 4863 
z
" transform="scale(0.015625)"/>
       <path id="DejaVuSans-7a" d="M 353 3500 
L 3084 3500 
L 3084 2975 
L 922 459 
L 3084 459 
L 3084 0 
L 275 0 
L 275 525 
L 2438 3041 
L 353 3041 
L 353 3500 
z
" transform="scale(0.015625)"/>
       <path id="DejaVuSans-6d" d="M 3328 2828 
Q 3544 3216 3844 3400 
Q 4144 3584 4550 3584 
Q 5097 3584 5394 3201 
Q 5691 2819 5691 2113 
L 5691 0 
L 5113 0 
L 5113 2094 
Q 5113 2597 4934 2840 
Q 4756 3084 4391 3084 
Q 3944 3084 3684 2787 
Q 3425 2491 3425 1978 
L 3425 0 
L 2847 0 
L 2847 2094 
Q 2847 2600 2669 2842 
Q 2491 3084 2119 3084 
Q 1678 3084 1418 2786 
Q 1159 2488 1159 1978 
L 1159 0 
L 581 0 
L 581 3500 
L 1159 3500 
L 1159 2956 
Q 1356 3278 1631 3431 
Q 1906 3584 2284 3584 
Q 2666 3584 2933 3390 
Q 3200 3197 3328 2828 
z
" transform="scale(0.015625)"/>
       <path id="DejaVuSans-66" d="M 2375 4863 
L 2375 4384 
L 1825 4384 
Q 1516 4384 1395 4259 
Q 1275 4134 1275 3809 
L 1275 3500 
L 2222 3500 
L 2222 3053 
L 1275 3053 
L 1275 0 
L 697 0 
L 697 3053 
L 147 3053 
L 147 3500 
L 697 3500 
L 697 3744 
Q 697 4328 969 4595 
Q 1241 4863 1831 4863 
L 2375 4863 
z
" transform="scale(0.015625)"/>
       <path id="DejaVuSans-63" d="M 3122 3366 
L 3122 2828 
Q 2878 2963 2633 3030 
Q 2388 3097 2138 3097 
Q 1578 3097 1268 2742 
Q 959 2388 959 1747 
Q 959 1106 1268 751 
Q 1578 397 2138 397 
Q 2388 397 2633 464 
Q 2878 531 3122 666 
L 3122 134 
Q 2881 22 2623 -34 
Q 2366 -91 2075 -91 
Q 1284 -91 818 406 
Q 353 903 353 1747 
Q 353 2603 823 3093 
Q 1294 3584 2113 3584 
Q 2378 3584 2631 3529 
Q 2884 3475 3122 3366 
z
" transform="scale(0.015625)"/>
      </defs>
      <use xlink:href="#DejaVuSans-41"/>
      <use xlink:href="#DejaVuSans-62" x="68.408203"/>
      <use xlink:href="#DejaVuSans-73" x="131.884766"/>
      <use xlink:href="#DejaVuSans-6f" x="183.984375"/>
      <use xlink:href="#DejaVuSans-6c" x="245.166016"/>
      <use xlink:href="#DejaVuSans-75" x="272.949219"/>
      <use xlink:href="#DejaVuSans-74" x="336.328125"/>
      <use xlink:href="#DejaVuSans-65" x="375.537109"/>
      <use xlink:href="#DejaVuSans-20" x="437.060547"/>
      <use xlink:href="#DejaVuSans-73" x="468.847656"/>
      <use xlink:href="#DejaVuSans-74" x="520.947266"/>
      <use xlink:href="#DejaVuSans-61" x="560.15625"/>
      <use xlink:href="#DejaVuSans-6e" x="621.435547"/>
      <use xlink:href="#DejaVuSans-64" x="684.814453"/>
      <use xlink:href="#DejaVuSans-61" x="748.291016"/>
      <use xlink:href="#DejaVuSans-72" x="809.570312"/>
      <use xlink:href="#DejaVuSans-64" x="848.933594"/>
      <use xlink:href="#DejaVuSans-69" x="912.410156"/>
      <use xlink:href="#DejaVuSans-7a" x="940.193359"/>
      <use xlink:href="#DejaVuSans-65" x="992.683594"/>
      <use xlink:href="#DejaVuSans-64" x="1054.207031"/>
      <use xlink:href="#DejaVuSans-20" x="1117.683594"/>
      <use xlink:href="#DejaVuSans-6d" x="1149.470703"/>
      <use xlink:href="#DejaVuSans-65" x="1246.882812"/>
      <use xlink:href="#DejaVuSans-61" x="1308.40625"/>
      <use xlink:href="#DejaVuSans-6e" x="1369.685547"/>
      <use xlink:href="#DejaVuSans-20" x="1433.064453"/>
      <use xlink:href="#DejaVuSans-64" x="1464.851562"/>
      <use xlink:href="#DejaVuSans-69" x="1528.328125"/>
      <use xlink:href="#DejaVuSans-66" x="1556.111328"/>
      <use xlink:href="#DejaVuSans-66" x="1591.316406"/>
      <use xlink:href="#DejaVuSans-65" x="1626.521484"/>
      <use xlink:href="#DejaVuSans-72" x="1688.044922"/>
      <use xlink:href="#DejaVuSans-65" x="1726.908203"/>
      <use xlink:href="#DejaVuSans-6e" x="1788.431641"/>
      <use xlink:href="#DejaVuSans-63" x="1851.810547"/>
      <use xlink:href="#DejaVuSans-65" x="1906.791016"/>
     </g>
    </g>
   </g>
   <g id="matplotlib.axis_2">
    <g id="ytick_1">
     <g id="line2d_6">
      <defs>
       <path id="mec8fe2c802" d="M 0 0 
L -3.5 0 
" style="stroke: #000000; stroke-width: 0.8"/>
      </defs>
      <g>
       <use xlink:href="#mec8fe2c802" x="44.078125" y="40.713125" style="stroke: #000000; stroke-width: 0.8"/>
      </g>
     </g>
     <g id="text_6">
      <!-- $X_A$ -->
      <g transform="translate(25.078125 44.512344) scale(0.1 -0.1)">
       <defs>
        <path id="DejaVuSans-Oblique-58" d="M 878 4666 
L 1516 4666 
L 2316 2981 
L 3763 4666 
L 4500 4666 
L 2578 2438 
L 3738 0 
L 3103 0 
L 2163 1966 
L 459 0 
L -275 0 
L 1906 2509 
L 878 4666 
z
" transform="scale(0.015625)"/>
        <path id="DejaVuSans-Oblique-41" d="M 2356 4666 
L 3072 4666 
L 3938 0 
L 3278 0 
L 3084 1197 
L 984 1197 
L 325 0 
L -341 0 
L 2356 4666 
z
M 2584 4044 
L 1275 1722 
L 2988 1722 
L 2584 4044 
z
" transform="scale(0.015625)"/>
       </defs>
       <use xlink:href="#DejaVuSans-Oblique-58" transform="translate(0 0.09375)"/>
       <use xlink:href="#DejaVuSans-Oblique-41" transform="translate(68.505859 -16.3125) scale(0.7)"/>
      </g>
     </g>
    </g>
    <g id="ytick_2">
     <g id="line2d_7">
      <g>
       <use xlink:href="#mec8fe2c802" x="44.078125" y="77.503125" style="stroke: #000000; stroke-width: 0.8"/>
      </g>
     </g>
     <g id="text_7">
      <!-- $X_{AY}$ -->
      <g transform="translate(20.878125 81.302344) scale(0.1 -0.1)">
       <defs>
        <path id="DejaVuSans-Oblique-59" d="M 403 4666 
L 1081 4666 
L 1953 2747 
L 3616 4666 
L 4325 4666 
L 2209 2222 
L 1778 0 
L 1147 0 
L 1575 2222 
L 403 4666 
z
" transform="scale(0.015625)"/>
       </defs>
       <use xlink:href="#DejaVuSans-Oblique-58" transform="translate(0 0.09375)"/>
       <use xlink:href="#DejaVuSans-Oblique-41" transform="translate(68.505859 -16.3125) scale(0.7)"/>
       <use xlink:href="#DejaVuSans-Oblique-59" transform="translate(116.391602 -16.3125) scale(0.7)"/>
      </g>
     </g>
    </g>
    <g id="ytick_3">
     <g id="line2d_8">
      <g>
       <use xlink:href="#mec8fe2c802" x="44.078125" y="114.293125" style="stroke: #000000; stroke-width: 0.8"/>
      </g>
     </g>
     <g id="text_8">
      <!-- $X_Y$ -->
      <g transform="translate(25.678125 118.092344) scale(0.1 -0.1)">
       <use xlink:href="#DejaVuSans-Oblique-58" transform="translate(0 0.09375)"/>
       <use xlink:href="#DejaVuSans-Oblique-59" transform="translate(68.505859 -16.3125) scale(0.7)"/>
      </g>
     </g>
    </g>
    <g id="ytick_4">
     <g id="line2d_9">
      <g>
       <use xlink:href="#mec8fe2c802" x="44.078125" y="151.083125" style="stroke: #000000; stroke-width: 0.8"/>
      </g>
     </g>
     <g id="text_9">
      <!-- $X_0$ -->
      <g transform="translate(25.478125 154.882344) scale(0.1 -0.1)">
       <use xlink:href="#DejaVuSans-Oblique-58" transform="translate(0 0.09375)"/>
       <use xlink:href="#DejaVuSans-30" transform="translate(68.505859 -16.3125) scale(0.7)"/>
      </g>
     </g>
    </g>
    <g id="text_10">
     <!-- Covariate -->
     <g transform="translate(14.798437 120.017656) rotate(-90) scale(0.1 -0.1)">
      <defs>
       <path id="DejaVuSans-43" d="M 4122 4306 
L 4122 3641 
Q 3803 3938 3442 4084 
Q 3081 4231 2675 4231 
Q 1875 4231 1450 3742 
Q 1025 3253 1025 2328 
Q 1025 1406 1450 917 
Q 1875 428 2675 428 
Q 3081 428 3442 575 
Q 3803 722 4122 1019 
L 4122 359 
Q 3791 134 3420 21 
Q 3050 -91 2638 -91 
Q 1578 -91 968 557 
Q 359 1206 359 2328 
Q 359 3453 968 4101 
Q 1578 4750 2638 4750 
Q 3056 4750 3426 4639 
Q 3797 4528 4122 4306 
z
" transform="scale(0.015625)"/>
       <path id="DejaVuSans-76" d="M 191 3500 
L 800 3500 
L 1894 563 
L 2988 3500 
L 3597 3500 
L 2284 0 
L 1503 0 
L 191 3500 
z
" transform="scale(0.015625)"/>
      </defs>
      <use xlink:href="#DejaVuSans-43"/>
      <use xlink:href="#DejaVuSans-6f" x="69.824219"/>
      <use xlink:href="#DejaVuSans-76" x="131.005859"/>
      <use xlink:href="#DejaVuSans-61" x="190.185547"/>
      <use xlink:href="#DejaVuSans-72" x="251.464844"/>
      <use xlink:href="#DejaVuSans-69" x="292.578125"/>
      <use xlink:href="#DejaVuSans-61" x="320.361328"/>
      <use xlink:href="#DejaVuSans-74" x="381.640625"/>
      <use xlink:href="#DejaVuSans-65" x="420.849609"/>
     </g>
    </g>
   </g>
   <g id="patch_3">
    <path d="M 44.078125 169.478125 
L 44.078125 22.318125 
" style="fill: none; stroke: #000000; stroke-width: 0.8; stroke-linejoin: miter; stroke-linecap: square"/>
   </g>
   <g id="patch_4">
    <path d="M 240.555604 169.478125 
L 240.555604 22.318125 
" style="fill: none; stroke: #000000; stroke-width: 0.8; stroke-linejoin: miter; stroke-linecap: square"/>
   </g>
   <g id="patch_5">
    <path d="M 44.078125 169.478125 
L 240.555604 169.478125 
" style="fill: none; stroke: #000000; stroke-width: 0.8; stroke-linejoin: miter; stroke-linecap: square"/>
   </g>
   <g id="patch_6">
    <path d="M 44.078125 22.318125 
L 240.555604 22.318125 
" style="fill: none; stroke: #000000; stroke-width: 0.8; stroke-linejoin: miter; stroke-linecap: square"/>
   </g>
   <g id="text_11">
    <!-- Love plot (standard) -->
    <g transform="translate(81.555615 16.318125) scale(0.12 -0.12)">
     <defs>
      <path id="DejaVuSans-4c" d="M 628 4666 
L 1259 4666 
L 1259 531 
L 3531 531 
L 3531 0 
L 628 0 
L 628 4666 
z
" transform="scale(0.015625)"/>
      <path id="DejaVuSans-70" d="M 1159 525 
L 1159 -1331 
L 581 -1331 
L 581 3500 
L 1159 3500 
L 1159 2969 
Q 1341 3281 1617 3432 
Q 1894 3584 2278 3584 
Q 2916 3584 3314 3078 
Q 3713 2572 3713 1747 
Q 3713 922 3314 415 
Q 2916 -91 2278 -91 
Q 1894 -91 1617 61 
Q 1341 213 1159 525 
z
M 3116 1747 
Q 3116 2381 2855 2742 
Q 2594 3103 2138 3103 
Q 1681 3103 1420 2742 
Q 1159 2381 1159 1747 
Q 1159 1113 1420 752 
Q 1681 391 2138 391 
Q 2594 391 2855 752 
Q 3116 1113 3116 1747 
z
" transform="scale(0.015625)"/>
      <path id="DejaVuSans-28" d="M 1984 4856 
Q 1566 4138 1362 3434 
Q 1159 2731 1159 2009 
Q 1159 1288 1364 580 
Q 1569 -128 1984 -844 
L 1484 -844 
Q 1016 -109 783 600 
Q 550 1309 550 2009 
Q 550 2706 781 3412 
Q 1013 4119 1484 4856 
L 1984 4856 
z
" transform="scale(0.015625)"/>
      <path id="DejaVuSans-29" d="M 513 4856 
L 1013 4856 
Q 1481 4119 1714 3412 
Q 1947 2706 1947 2009 
Q 1947 1309 1714 600 
Q 1481 -109 1013 -844 
L 513 -844 
Q 928 -128 1133 580 
Q 1338 1288 1338 2009 
Q 1338 2731 1133 3434 
Q 928 4138 513 4856 
z
" transform="scale(0.015625)"/>
     </defs>
     <use xlink:href="#DejaVuSans-4c"/>
     <use xlink:href="#DejaVuSans-6f" x="53.962891"/>
     <use xlink:href="#DejaVuSans-76" x="115.144531"/>
     <use xlink:href="#DejaVuSans-65" x="174.324219"/>
     <use xlink:href="#DejaVuSans-20" x="235.847656"/>
     <use xlink:href="#DejaVuSans-70" x="267.634766"/>
     <use xlink:href="#DejaVuSans-6c" x="331.111328"/>
     <use xlink:href="#DejaVuSans-6f" x="358.894531"/>
     <use xlink:href="#DejaVuSans-74" x="420.076172"/>
     <use xlink:href="#DejaVuSans-20" x="459.285156"/>
     <use xlink:href="#DejaVuSans-28" x="491.072266"/>
     <use xlink:href="#DejaVuSans-73" x="530.085938"/>
     <use xlink:href="#DejaVuSans-74" x="582.185547"/>
     <use xlink:href="#DejaVuSans-61" x="621.394531"/>
     <use xlink:href="#DejaVuSans-6e" x="682.673828"/>
     <use xlink:href="#DejaVuSans-64" x="746.052734"/>
     <use xlink:href="#DejaVuSans-61" x="809.529297"/>
     <use xlink:href="#DejaVuSans-72" x="870.808594"/>
     <use xlink:href="#DejaVuSans-64" x="910.171875"/>
     <use xlink:href="#DejaVuSans-29" x="973.648438"/>
    </g>
   </g>
  </g>
  <g id="axes_2">
   <g id="patch_7">
    <path d="M 290.678125 169.478125 
L 487.155604 169.478125 
L 487.155604 22.318125 
L 290.678125 22.318125 
z
" style="fill: #ffffff"/>
   </g>
   <g id="line2d_10">
    <path d="M 355.974691 169.478125 
L 355.974691 22.318125 
" clip-path="url(#p3387376b7b)" style="fill: none; stroke-dasharray: 5.55,2.4; stroke-dashoffset: 0; stroke: #999999; stroke-width: 1.5"/>
   </g>
   <g id="LineCollection_2">
    <path d="M 300.501635 151.083125 
L 307.764773 151.083125 
" clip-path="url(#p3387376b7b)" style="fill: none; stroke-dasharray: 2.775,1.2; stroke-dashoffset: 0; stroke: #cccccc; stroke-opacity: 0.3; stroke-width: 0.75; stroke-linecap: square"/>
    <path d="M 299.902212 114.293125 
L 478.22481 114.293125 
" clip-path="url(#p3387376b7b)" style="fill: none; stroke-dasharray: 2.775755,1.200326; stroke-dashoffset: 0; stroke: #cccccc; stroke-opacity: 0.300059; stroke-width: 0.750204; stroke-linecap: square"/>
    <path d="M 299.60892 77.503125 
L 329.609924 77.503125 
" clip-path="url(#p3387376b7b)" style="fill: none; stroke-dasharray: 5.296812,2.290513; stroke-dashoffset: 0; stroke: #cccccc; stroke-opacity: 0.496898; stroke-width: 1.431571; stroke-linecap: square"/>
    <path d="M 300.204924 40.713125 
L 418.376256 40.713125 
" clip-path="url(#p3387376b7b)" style="fill: none; stroke-dasharray: 11.1,4.8; stroke-dashoffset: 0; stroke: #cccccc; stroke-opacity: 0.95; stroke-width: 3; stroke-linecap: square"/>
   </g>
   <g id="PathCollection_2">
    <path d="M 300.501635 152.083125 
C 300.766838 152.083125 301.021215 151.977759 301.208742 151.790232 
C 301.396268 151.602705 301.501635 151.348328 301.501635 151.083125 
C 301.501635 150.817922 301.396268 150.563545 301.208742 150.376018 
C 301.021215 150.188491 300.766838 150.083125 300.501635 150.083125 
C 300.236432 150.083125 299.982055 150.188491 299.794528 150.376018 
C 299.607001 150.563545 299.501635 150.817922 299.501635 151.083125 
C 299.501635 151.348328 299.607001 151.602705 299.794528 151.790232 
C 299.982055 151.977759 300.236432 152.083125 300.501635 152.083125 
z
" clip-path="url(#p3387376b7b)" style="fill: #4c72b0; fill-opacity: 0.3; stroke: #4c72b0; stroke-opacity: 0.3; stroke-width: 0.5"/>
    <path d="M 299.902212 115.293805 
C 300.167596 115.293805 300.422145 115.188367 300.6098 115.000712 
C 300.797454 114.813058 300.902892 114.558508 300.902892 114.293125 
C 300.902892 114.027742 300.797454 113.773192 300.6098 113.585538 
C 300.422145 113.397883 300.167596 113.292445 299.902212 113.292445 
C 299.636829 113.292445 299.382279 113.397883 299.194625 113.585538 
C 299.006971 113.773192 298.901533 114.027742 298.901533 114.293125 
C 298.901533 114.558508 299.006971 114.813058 299.194625 115.000712 
C 299.382279 115.188367 299.636829 115.293805 299.902212 115.293805 
z
" clip-path="url(#p3387376b7b)" style="fill: #4c72b0; fill-opacity: 0.300059; stroke: #4c72b0; stroke-opacity: 0.300059; stroke-width: 0.5"/>
    <path d="M 299.60892 79.857654 
C 300.233348 79.857654 300.832285 79.609566 301.273823 79.168028 
C 301.71536 78.726491 301.963448 78.127553 301.963448 77.503125 
C 301.963448 76.878697 301.71536 76.279759 301.273823 75.838222 
C 300.832285 75.396684 300.233348 75.148596 299.60892 75.148596 
C 298.984491 75.148596 298.385554 75.396684 297.944016 75.838222 
C 297.502479 76.279759 297.254391 76.878697 297.254391 77.503125 
C 297.254391 78.127553 297.502479 78.726491 297.944016 79.168028 
C 298.385554 79.609566 298.984491 79.857654 299.60892 79.857654 
z
" clip-path="url(#p3387376b7b)" style="fill: #4c72b0; fill-opacity: 0.496898; stroke: #4c72b0; stroke-opacity: 0.496898; stroke-width: 0.5"/>
    <path d="M 300.204924 44.713125 
C 301.265736 44.713125 302.283244 44.29166 303.033351 43.541552 
C 303.783459 42.791444 304.204924 41.773937 304.204924 40.713125 
C 304.204924 39.652313 303.783459 38.634806 303.033351 37.884698 
C 302.283244 37.13459 301.265736 36.713125 300.204924 36.713125 
C 299.144112 36.713125 298.126605 37.13459 297.376497 37.884698 
C 296.626389 38.634806 296.204924 39.652313 296.204924 40.713125 
C 296.204924 41.773937 296.626389 42.791444 297.376497 43.541552 
C 298.126605 44.29166 299.144112 44.713125 300.204924 44.713125 
z
" clip-path="url(#p3387376b7b)" style="fill: #4c72b0; fill-opacity: 0.95; stroke: #4c72b0; stroke-opacity: 0.95; stroke-width: 0.5"/>
    <path d="M 307.764773 150.083125 
L 306.764773 152.083125 
L 308.764773 152.083125 
z
" clip-path="url(#p3387376b7b)" style="fill: #dd8452; fill-opacity: 0.3; stroke: #dd8452; stroke-opacity: 0.3; stroke-width: 0.5"/>
    <path d="M 478.22481 113.292445 
L 477.22413 115.293805 
L 479.225489 115.293805 
z
" clip-path="url(#p3387376b7b)" style="fill: #dd8452; fill-opacity: 0.300059; stroke: #dd8452; stroke-opacity: 0.300059; stroke-width: 0.5"/>
    <path d="M 329.609924 75.148596 
L 327.255395 79.857654 
L 331.964453 79.857654 
z
" clip-path="url(#p3387376b7b)" style="fill: #dd8452; fill-opacity: 0.496898; stroke: #dd8452; stroke-opacity: 0.496898; stroke-width: 0.5"/>
    <path d="M 418.376256 36.713125 
L 414.376256 44.713125 
L 422.376256 44.713125 
z
" clip-path="url(#p3387376b7b)" style="fill: #dd8452; fill-opacity: 0.95; stroke: #dd8452; stroke-opacity: 0.95; stroke-width: 0.5"/>
   </g>
   <g id="matplotlib.axis_3">
    <g id="xtick_5">
     <g id="line2d_11">
      <g>
       <use xlink:href="#me4ff2ff4d1" x="299.058831" y="169.478125" style="stroke: #000000; stroke-width: 0.8"/>
      </g>
     </g>
     <g id="text_12">
      <!-- 0.0 -->
      <g transform="translate(291.107268 184.076563) scale(0.1 -0.1)">
       <use xlink:href="#DejaVuSans-30"/>
       <use xlink:href="#DejaVuSans-2e" x="63.623047"/>
       <use xlink:href="#DejaVuSans-30" x="95.410156"/>
      </g>
     </g>
    </g>
    <g id="xtick_6">
     <g id="line2d_12">
      <g>
       <use xlink:href="#me4ff2ff4d1" x="355.974691" y="169.478125" style="stroke: #000000; stroke-width: 0.8"/>
      </g>
     </g>
     <g id="text_13">
      <!-- 0.1 -->
      <g transform="translate(348.023129 184.076563) scale(0.1 -0.1)">
       <use xlink:href="#DejaVuSans-30"/>
       <use xlink:href="#DejaVuSans-2e" x="63.623047"/>
       <use xlink:href="#DejaVuSans-31" x="95.410156"/>
      </g>
     </g>
    </g>
    <g id="xtick_7">
     <g id="line2d_13">
      <g>
       <use xlink:href="#me4ff2ff4d1" x="412.890551" y="169.478125" style="stroke: #000000; stroke-width: 0.8"/>
      </g>
     </g>
     <g id="text_14">
      <!-- 0.2 -->
      <g transform="translate(404.938989 184.076563) scale(0.1 -0.1)">
       <use xlink:href="#DejaVuSans-30"/>
       <use xlink:href="#DejaVuSans-2e" x="63.623047"/>
       <use xlink:href="#DejaVuSans-32" x="95.410156"/>
      </g>
     </g>
    </g>
    <g id="xtick_8">
     <g id="line2d_14">
      <g>
       <use xlink:href="#me4ff2ff4d1" x="469.806412" y="169.478125" style="stroke: #000000; stroke-width: 0.8"/>
      </g>
     </g>
     <g id="text_15">
      <!-- 0.3 -->
      <g transform="translate(461.854849 184.076563) scale(0.1 -0.1)">
       <use xlink:href="#DejaVuSans-30"/>
       <use xlink:href="#DejaVuSans-2e" x="63.623047"/>
       <use xlink:href="#DejaVuSans-33" x="95.410156"/>
      </g>
     </g>
    </g>
    <g id="text_16">
     <!-- Absolute standardized mean difference -->
     <g transform="translate(290.500458 197.754688) scale(0.1 -0.1)">
      <use xlink:href="#DejaVuSans-41"/>
      <use xlink:href="#DejaVuSans-62" x="68.408203"/>
      <use xlink:href="#DejaVuSans-73" x="131.884766"/>
      <use xlink:href="#DejaVuSans-6f" x="183.984375"/>
      <use xlink:href="#DejaVuSans-6c" x="245.166016"/>
      <use xlink:href="#DejaVuSans-75" x="272.949219"/>
      <use xlink:href="#DejaVuSans-74" x="336.328125"/>
      <use xlink:href="#DejaVuSans-65" x="375.537109"/>
      <use xlink:href="#DejaVuSans-20" x="437.060547"/>
      <use xlink:href="#DejaVuSans-73" x="468.847656"/>
      <use xlink:href="#DejaVuSans-74" x="520.947266"/>
      <use xlink:href="#DejaVuSans-61" x="560.15625"/>
      <use xlink:href="#DejaVuSans-6e" x="621.435547"/>
      <use xlink:href="#DejaVuSans-64" x="684.814453"/>
      <use xlink:href="#DejaVuSans-61" x="748.291016"/>
      <use xlink:href="#DejaVuSans-72" x="809.570312"/>
      <use xlink:href="#DejaVuSans-64" x="848.933594"/>
      <use xlink:href="#DejaVuSans-69" x="912.410156"/>
      <use xlink:href="#DejaVuSans-7a" x="940.193359"/>
      <use xlink:href="#DejaVuSans-65" x="992.683594"/>
      <use xlink:href="#DejaVuSans-64" x="1054.207031"/>
      <use xlink:href="#DejaVuSans-20" x="1117.683594"/>
      <use xlink:href="#DejaVuSans-6d" x="1149.470703"/>
      <use xlink:href="#DejaVuSans-65" x="1246.882812"/>
      <use xlink:href="#DejaVuSans-61" x="1308.40625"/>
      <use xlink:href="#DejaVuSans-6e" x="1369.685547"/>
      <use xlink:href="#DejaVuSans-20" x="1433.064453"/>
      <use xlink:href="#DejaVuSans-64" x="1464.851562"/>
      <use xlink:href="#DejaVuSans-69" x="1528.328125"/>
      <use xlink:href="#DejaVuSans-66" x="1556.111328"/>
      <use xlink:href="#DejaVuSans-66" x="1591.316406"/>
      <use xlink:href="#DejaVuSans-65" x="1626.521484"/>
      <use xlink:href="#DejaVuSans-72" x="1688.044922"/>
      <use xlink:href="#DejaVuSans-65" x="1726.908203"/>
      <use xlink:href="#DejaVuSans-6e" x="1788.431641"/>
      <use xlink:href="#DejaVuSans-63" x="1851.810547"/>
      <use xlink:href="#DejaVuSans-65" x="1906.791016"/>
     </g>
    </g>
   </g>
   <g id="matplotlib.axis_4">
    <g id="ytick_5">
     <g id="line2d_15">
      <g>
       <use xlink:href="#mec8fe2c802" x="290.678125" y="40.713125" style="stroke: #000000; stroke-width: 0.8"/>
      </g>
     </g>
     <g id="text_17">
      <!-- $X_{AY}$ -->
      <g transform="translate(267.478125 44.512344) scale(0.1 -0.1)">
       <use xlink:href="#DejaVuSans-Oblique-58" transform="translate(0 0.09375)"/>
       <use xlink:href="#DejaVuSans-Oblique-41" transform="translate(68.505859 -16.3125) scale(0.7)"/>
       <use xlink:href="#DejaVuSans-Oblique-59" transform="translate(116.391602 -16.3125) scale(0.7)"/>
      </g>
     </g>
    </g>
    <g id="ytick_6">
     <g id="line2d_16">
      <g>
       <use xlink:href="#mec8fe2c802" x="290.678125" y="77.503125" style="stroke: #000000; stroke-width: 0.8"/>
      </g>
     </g>
     <g id="text_18">
      <!-- $X_Y$ -->
      <g transform="translate(272.278125 81.302344) scale(0.1 -0.1)">
       <use xlink:href="#DejaVuSans-Oblique-58" transform="translate(0 0.09375)"/>
       <use xlink:href="#DejaVuSans-Oblique-59" transform="translate(68.505859 -16.3125) scale(0.7)"/>
      </g>
     </g>
    </g>
    <g id="ytick_7">
     <g id="line2d_17">
      <g>
       <use xlink:href="#mec8fe2c802" x="290.678125" y="114.293125" style="stroke: #000000; stroke-width: 0.8"/>
      </g>
     </g>
     <g id="text_19">
      <!-- $X_A$ -->
      <g transform="translate(271.678125 118.092344) scale(0.1 -0.1)">
       <use xlink:href="#DejaVuSans-Oblique-58" transform="translate(0 0.09375)"/>
       <use xlink:href="#DejaVuSans-Oblique-41" transform="translate(68.505859 -16.3125) scale(0.7)"/>
      </g>
     </g>
    </g>
    <g id="ytick_8">
     <g id="line2d_18">
      <g>
       <use xlink:href="#mec8fe2c802" x="290.678125" y="151.083125" style="stroke: #000000; stroke-width: 0.8"/>
      </g>
     </g>
     <g id="text_20">
      <!-- $X_0$ -->
      <g transform="translate(272.078125 154.882344) scale(0.1 -0.1)">
       <use xlink:href="#DejaVuSans-Oblique-58" transform="translate(0 0.09375)"/>
       <use xlink:href="#DejaVuSans-30" transform="translate(68.505859 -16.3125) scale(0.7)"/>
      </g>
     </g>
    </g>
    <g id="text_21">
     <!-- Covariate -->
     <g transform="translate(261.398438 120.017656) rotate(-90) scale(0.1 -0.1)">
      <use xlink:href="#DejaVuSans-43"/>
      <use xlink:href="#DejaVuSans-6f" x="69.824219"/>
      <use xlink:href="#DejaVuSans-76" x="131.005859"/>
      <use xlink:href="#DejaVuSans-61" x="190.185547"/>
      <use xlink:href="#DejaVuSans-72" x="251.464844"/>
      <use xlink:href="#DejaVuSans-69" x="292.578125"/>
      <use xlink:href="#DejaVuSans-61" x="320.361328"/>
      <use xlink:href="#DejaVuSans-74" x="381.640625"/>
      <use xlink:href="#DejaVuSans-65" x="420.849609"/>
     </g>
    </g>
   </g>
   <g id="patch_8">
    <path d="M 290.678125 169.478125 
L 290.678125 22.318125 
" style="fill: none; stroke: #000000; stroke-width: 0.8; stroke-linejoin: miter; stroke-linecap: square"/>
   </g>
   <g id="patch_9">
    <path d="M 487.155604 169.478125 
L 487.155604 22.318125 
" style="fill: none; stroke: #000000; stroke-width: 0.8; stroke-linejoin: miter; stroke-linecap: square"/>
   </g>
   <g id="patch_10">
    <path d="M 290.678125 169.478125 
L 487.155604 169.478125 
" style="fill: none; stroke: #000000; stroke-width: 0.8; stroke-linejoin: miter; stroke-linecap: square"/>
   </g>
   <g id="patch_11">
    <path d="M 290.678125 22.318125 
L 487.155604 22.318125 
" style="fill: none; stroke: #000000; stroke-width: 0.8; stroke-linejoin: miter; stroke-linecap: square"/>
   </g>
   <g id="text_22">
    <!-- Outcome-informed Love plot -->
    <g transform="translate(302.94249 16.318125) scale(0.12 -0.12)">
     <defs>
      <path id="DejaVuSans-4f" d="M 2522 4238 
Q 1834 4238 1429 3725 
Q 1025 3213 1025 2328 
Q 1025 1447 1429 934 
Q 1834 422 2522 422 
Q 3209 422 3611 934 
Q 4013 1447 4013 2328 
Q 4013 3213 3611 3725 
Q 3209 4238 2522 4238 
z
M 2522 4750 
Q 3503 4750 4090 4092 
Q 4678 3434 4678 2328 
Q 4678 1225 4090 567 
Q 3503 -91 2522 -91 
Q 1538 -91 948 565 
Q 359 1222 359 2328 
Q 359 3434 948 4092 
Q 1538 4750 2522 4750 
z
" transform="scale(0.015625)"/>
      <path id="DejaVuSans-2d" d="M 313 2009 
L 1997 2009 
L 1997 1497 
L 313 1497 
L 313 2009 
z
" transform="scale(0.015625)"/>
     </defs>
     <use xlink:href="#DejaVuSans-4f"/>
     <use xlink:href="#DejaVuSans-75" x="78.710938"/>
     <use xlink:href="#DejaVuSans-74" x="142.089844"/>
     <use xlink:href="#DejaVuSans-63" x="181.298828"/>
     <use xlink:href="#DejaVuSans-6f" x="236.279297"/>
     <use xlink:href="#DejaVuSans-6d" x="297.460938"/>
     <use xlink:href="#DejaVuSans-65" x="394.873047"/>
     <use xlink:href="#DejaVuSans-2d" x="456.396484"/>
     <use xlink:href="#DejaVuSans-69" x="492.480469"/>
     <use xlink:href="#DejaVuSans-6e" x="520.263672"/>
     <use xlink:href="#DejaVuSans-66" x="583.642578"/>
     <use xlink:href="#DejaVuSans-6f" x="618.847656"/>
     <use xlink:href="#DejaVuSans-72" x="680.029297"/>
     <use xlink:href="#DejaVuSans-6d" x="719.392578"/>
     <use xlink:href="#DejaVuSans-65" x="816.804688"/>
     <use xlink:href="#DejaVuSans-64" x="878.328125"/>
     <use xlink:href="#DejaVuSans-20" x="941.804688"/>
     <use xlink:href="#DejaVuSans-4c" x="973.591797"/>
     <use xlink:href="#DejaVuSans-6f" x="1027.554688"/>
     <use xlink:href="#DejaVuSans-76" x="1088.736328"/>
     <use xlink:href="#DejaVuSans-65" x="1147.916016"/>
     <use xlink:href="#DejaVuSans-20" x="1209.439453"/>
     <use xlink:href="#DejaVuSans-70" x="1241.226562"/>
     <use xlink:href="#DejaVuSans-6c" x="1304.703125"/>
     <use xlink:href="#DejaVuSans-6f" x="1332.486328"/>
     <use xlink:href="#DejaVuSans-74" x="1393.667969"/>
    </g>
   </g>
  </g>
  <g id="legend_1">
   <g id="patch_12">
    <path d="M 501.62 155.435937 
L 601.601406 155.435937 
Q 603.801406 155.435937 603.801406 153.235937 
L 603.801406 23.232812 
Q 603.801406 21.032812 601.601406 21.032812 
L 501.62 21.032812 
Q 499.42 21.032812 499.42 23.232812 
L 499.42 153.235937 
Q 499.42 155.435937 501.62 155.435937 
z
" style="fill: #ffffff; opacity: 0.8; stroke: #cccccc; stroke-linejoin: miter"/>
   </g>
   <g id="text_23">
    <!-- adjustment -->
    <g style="fill: #262626" transform="translate(517.486641 34.550937) scale(0.12 -0.12)">
     <defs>
      <path id="DejaVuSans-6a" d="M 603 3500 
L 1178 3500 
L 1178 -63 
Q 1178 -731 923 -1031 
Q 669 -1331 103 -1331 
L -116 -1331 
L -116 -844 
L 38 -844 
Q 366 -844 484 -692 
Q 603 -541 603 -63 
L 603 3500 
z
M 603 4863 
L 1178 4863 
L 1178 4134 
L 603 4134 
L 603 4863 
z
" transform="scale(0.015625)"/>
     </defs>
     <use xlink:href="#DejaVuSans-61"/>
     <use xlink:href="#DejaVuSans-64" x="61.279297"/>
     <use xlink:href="#DejaVuSans-6a" x="124.755859"/>
     <use xlink:href="#DejaVuSans-75" x="152.539062"/>
     <use xlink:href="#DejaVuSans-73" x="215.917969"/>
     <use xlink:href="#DejaVuSans-74" x="268.017578"/>
     <use xlink:href="#DejaVuSans-6d" x="307.226562"/>
     <use xlink:href="#DejaVuSans-65" x="404.638672"/>
     <use xlink:href="#DejaVuSans-6e" x="466.162109"/>
     <use xlink:href="#DejaVuSans-74" x="529.541016"/>
    </g>
   </g>
   <g id="PathCollection_3">
    <defs>
     <path id="m27bc699416" d="M 0 3 
C 0.795609 3 1.55874 2.683901 2.12132 2.12132 
C 2.683901 1.55874 3 0.795609 3 0 
C 3 -0.795609 2.683901 -1.55874 2.12132 -2.12132 
C 1.55874 -2.683901 0.795609 -3 0 -3 
C -0.795609 -3 -1.55874 -2.683901 -2.12132 -2.12132 
C -2.683901 -1.55874 -3 -0.795609 -3 0 
C -3 0.795609 -2.683901 1.55874 -2.12132 2.12132 
C -1.55874 2.683901 -0.795609 3 0 3 
z
" style="stroke: #4c72b0; stroke-width: 0.5"/>
    </defs>
    <g>
     <use xlink:href="#m27bc699416" x="514.82" y="48.017344" style="fill: #4c72b0; stroke: #4c72b0; stroke-width: 0.5"/>
    </g>
   </g>
   <g id="text_24">
    <!-- weighted -->
    <g style="fill: #262626" transform="translate(534.62 50.904844) scale(0.11 -0.11)">
     <defs>
      <path id="DejaVuSans-77" d="M 269 3500 
L 844 3500 
L 1563 769 
L 2278 3500 
L 2956 3500 
L 3675 769 
L 4391 3500 
L 4966 3500 
L 4050 0 
L 3372 0 
L 2619 2869 
L 1863 0 
L 1184 0 
L 269 3500 
z
" transform="scale(0.015625)"/>
      <path id="DejaVuSans-67" d="M 2906 1791 
Q 2906 2416 2648 2759 
Q 2391 3103 1925 3103 
Q 1463 3103 1205 2759 
Q 947 2416 947 1791 
Q 947 1169 1205 825 
Q 1463 481 1925 481 
Q 2391 481 2648 825 
Q 2906 1169 2906 1791 
z
M 3481 434 
Q 3481 -459 3084 -895 
Q 2688 -1331 1869 -1331 
Q 1566 -1331 1297 -1286 
Q 1028 -1241 775 -1147 
L 775 -588 
Q 1028 -725 1275 -790 
Q 1522 -856 1778 -856 
Q 2344 -856 2625 -561 
Q 2906 -266 2906 331 
L 2906 616 
Q 2728 306 2450 153 
Q 2172 0 1784 0 
Q 1141 0 747 490 
Q 353 981 353 1791 
Q 353 2603 747 3093 
Q 1141 3584 1784 3584 
Q 2172 3584 2450 3431 
Q 2728 3278 2906 2969 
L 2906 3500 
L 3481 3500 
L 3481 434 
z
" transform="scale(0.015625)"/>
      <path id="DejaVuSans-68" d="M 3513 2113 
L 3513 0 
L 2938 0 
L 2938 2094 
Q 2938 2591 2744 2837 
Q 2550 3084 2163 3084 
Q 1697 3084 1428 2787 
Q 1159 2491 1159 1978 
L 1159 0 
L 581 0 
L 581 4863 
L 1159 4863 
L 1159 2956 
Q 1366 3272 1645 3428 
Q 1925 3584 2291 3584 
Q 2894 3584 3203 3211 
Q 3513 2838 3513 2113 
z
" transform="scale(0.015625)"/>
     </defs>
     <use xlink:href="#DejaVuSans-77"/>
     <use xlink:href="#DejaVuSans-65" x="81.787109"/>
     <use xlink:href="#DejaVuSans-69" x="143.310547"/>
     <use xlink:href="#DejaVuSans-67" x="171.09375"/>
     <use xlink:href="#DejaVuSans-68" x="234.570312"/>
     <use xlink:href="#DejaVuSans-74" x="297.949219"/>
     <use xlink:href="#DejaVuSans-65" x="337.158203"/>
     <use xlink:href="#DejaVuSans-64" x="398.681641"/>
    </g>
   </g>
   <g id="PathCollection_4">
    <defs>
     <path id="mb074cf3dbf" d="M 0 -3 
L -3 3 
L 3 3 
z
" style="stroke: #dd8452; stroke-width: 0.5"/>
    </defs>
    <g>
     <use xlink:href="#mb074cf3dbf" x="514.82" y="64.163281" style="fill: #dd8452; stroke: #dd8452; stroke-width: 0.5"/>
    </g>
   </g>
   <g id="text_25">
    <!-- unweighted -->
    <g style="fill: #262626" transform="translate(534.62 67.050781) scale(0.11 -0.11)">
     <use xlink:href="#DejaVuSans-75"/>
     <use xlink:href="#DejaVuSans-6e" x="63.378906"/>
     <use xlink:href="#DejaVuSans-77" x="126.757812"/>
     <use xlink:href="#DejaVuSans-65" x="208.544922"/>
     <use xlink:href="#DejaVuSans-69" x="270.068359"/>
     <use xlink:href="#DejaVuSans-67" x="297.851562"/>
     <use xlink:href="#DejaVuSans-68" x="361.328125"/>
     <use xlink:href="#DejaVuSans-74" x="424.707031"/>
     <use xlink:href="#DejaVuSans-65" x="463.916016"/>
     <use xlink:href="#DejaVuSans-64" x="525.439453"/>
    </g>
   </g>
   <g id="text_26">
    <!-- Oui-ASMD -->
    <g style="fill: #262626" transform="translate(521.678203 83.956562) scale(0.12 -0.12)">
     <defs>
      <path id="DejaVuSans-53" d="M 3425 4513 
L 3425 3897 
Q 3066 4069 2747 4153 
Q 2428 4238 2131 4238 
Q 1616 4238 1336 4038 
Q 1056 3838 1056 3469 
Q 1056 3159 1242 3001 
Q 1428 2844 1947 2747 
L 2328 2669 
Q 3034 2534 3370 2195 
Q 3706 1856 3706 1288 
Q 3706 609 3251 259 
Q 2797 -91 1919 -91 
Q 1588 -91 1214 -16 
Q 841 59 441 206 
L 441 856 
Q 825 641 1194 531 
Q 1563 422 1919 422 
Q 2459 422 2753 634 
Q 3047 847 3047 1241 
Q 3047 1584 2836 1778 
Q 2625 1972 2144 2069 
L 1759 2144 
Q 1053 2284 737 2584 
Q 422 2884 422 3419 
Q 422 4038 858 4394 
Q 1294 4750 2059 4750 
Q 2388 4750 2728 4690 
Q 3069 4631 3425 4513 
z
" transform="scale(0.015625)"/>
      <path id="DejaVuSans-4d" d="M 628 4666 
L 1569 4666 
L 2759 1491 
L 3956 4666 
L 4897 4666 
L 4897 0 
L 4281 0 
L 4281 4097 
L 3078 897 
L 2444 897 
L 1241 4097 
L 1241 0 
L 628 0 
L 628 4666 
z
" transform="scale(0.015625)"/>
      <path id="DejaVuSans-44" d="M 1259 4147 
L 1259 519 
L 2022 519 
Q 2988 519 3436 956 
Q 3884 1394 3884 2338 
Q 3884 3275 3436 3711 
Q 2988 4147 2022 4147 
L 1259 4147 
z
M 628 4666 
L 1925 4666 
Q 3281 4666 3915 4102 
Q 4550 3538 4550 2338 
Q 4550 1131 3912 565 
Q 3275 0 1925 0 
L 628 0 
L 628 4666 
z
" transform="scale(0.015625)"/>
     </defs>
     <use xlink:href="#DejaVuSans-4f"/>
     <use xlink:href="#DejaVuSans-75" x="78.710938"/>
     <use xlink:href="#DejaVuSans-69" x="142.089844"/>
     <use xlink:href="#DejaVuSans-2d" x="169.873047"/>
     <use xlink:href="#DejaVuSans-41" x="203.707031"/>
     <use xlink:href="#DejaVuSans-53" x="272.115234"/>
     <use xlink:href="#DejaVuSans-4d" x="335.591797"/>
     <use xlink:href="#DejaVuSans-44" x="421.871094"/>
    </g>
   </g>
   <g id="PathCollection_5">
    <defs>
     <path id="m6126c31fa1" d="M 0 2.043193 
C 0.541861 2.043193 1.061602 1.82791 1.444756 1.444756 
C 1.82791 1.061602 2.043193 0.541861 2.043193 0 
C 2.043193 -0.541861 1.82791 -1.061602 1.444756 -1.444756 
C 1.061602 -1.82791 0.541861 -2.043193 0 -2.043193 
C -0.541861 -2.043193 -1.061602 -1.82791 -1.444756 -1.444756 
C -1.82791 -1.061602 -2.043193 -0.541861 -2.043193 0 
C -2.043193 0.541861 -1.82791 1.061602 -1.444756 1.444756 
C -1.061602 1.82791 -0.541861 2.043193 0 2.043193 
z
" style="stroke: #4c72b0; stroke-opacity: 0.437568; stroke-width: 0.5"/>
    </defs>
    <g>
     <use xlink:href="#m6126c31fa1" x="534.964609" y="97.422969" style="fill: #4c72b0; fill-opacity: 0.437568; stroke: #4c72b0; stroke-opacity: 0.437568; stroke-width: 0.5"/>
    </g>
   </g>
   <g id="line2d_19">
    <path d="M 523.964609 96.460469 
L 534.964609 96.460469 
L 545.964609 96.460469 
" style="fill: none; stroke-dasharray: 4.536924,1.961913; stroke-dashoffset: 0; stroke: #cccccc; stroke-width: 1.226196; stroke-linecap: square"/>
   </g>
   <g id="text_27">
    <!-- 0.01 -->
    <g style="fill: #262626" transform="translate(554.764609 100.310469) scale(0.11 -0.11)">
     <use xlink:href="#DejaVuSans-30"/>
     <use xlink:href="#DejaVuSans-2e" x="63.623047"/>
     <use xlink:href="#DejaVuSans-30" x="95.410156"/>
     <use xlink:href="#DejaVuSans-31" x="159.033203"/>
    </g>
   </g>
   <g id="PathCollection_6">
    <defs>
     <path id="me7993eb96c" d="M 0 2.711166 
C 0.71901 2.711166 1.408667 2.4255 1.917084 1.917084 
C 2.4255 1.408667 2.711166 0.71901 2.711166 0 
C 2.711166 -0.71901 2.4255 -1.408667 1.917084 -1.917084 
C 1.408667 -2.4255 0.71901 -2.711166 0 -2.711166 
C -0.71901 -2.711166 -1.408667 -2.4255 -1.917084 -1.917084 
C -2.4255 -1.408667 -2.711166 -0.71901 -2.711166 0 
C -2.711166 0.71901 -2.4255 1.408667 -1.917084 1.917084 
C -1.408667 2.4255 -0.71901 2.711166 0 2.711166 
z
" style="stroke: #4c72b0; stroke-opacity: 0.575185; stroke-width: 0.5"/>
    </defs>
    <g>
     <use xlink:href="#me7993eb96c" x="534.964609" y="113.568906" style="fill: #4c72b0; fill-opacity: 0.575185; stroke: #4c72b0; stroke-opacity: 0.575185; stroke-width: 0.5"/>
    </g>
   </g>
   <g id="line2d_20">
    <path d="M 523.964609 112.606406 
L 534.964609 112.606406 
L 545.964609 112.606406 
" style="fill: none; stroke-dasharray: 6.299484,2.724101; stroke-dashoffset: 0; stroke: #cccccc; stroke-width: 1.702563; stroke-linecap: square"/>
   </g>
   <g id="text_28">
    <!-- 0.02 -->
    <g style="fill: #262626" transform="translate(554.764609 116.456406) scale(0.11 -0.11)">
     <use xlink:href="#DejaVuSans-30"/>
     <use xlink:href="#DejaVuSans-2e" x="63.623047"/>
     <use xlink:href="#DejaVuSans-30" x="95.410156"/>
     <use xlink:href="#DejaVuSans-32" x="159.033203"/>
    </g>
   </g>
   <g id="PathCollection_7">
    <defs>
     <path id="mdcfa805f63" d="M 0 3.244411 
C 0.860428 3.244411 1.685731 2.90256 2.294145 2.294145 
C 2.90256 1.685731 3.244411 0.860428 3.244411 0 
C 3.244411 -0.860428 2.90256 -1.685731 2.294145 -2.294145 
C 1.685731 -2.90256 0.860428 -3.244411 0 -3.244411 
C -0.860428 -3.244411 -1.685731 -2.90256 -2.294145 -2.294145 
C -2.90256 -1.685731 -3.244411 -0.860428 -3.244411 0 
C -3.244411 0.860428 -2.90256 1.685731 -2.294145 2.294145 
C -1.685731 2.90256 -0.860428 3.244411 0 3.244411 
z
" style="stroke: #4c72b0; stroke-opacity: 0.712802; stroke-width: 0.5"/>
    </defs>
    <g>
     <use xlink:href="#mdcfa805f63" x="534.964609" y="129.714844" style="fill: #4c72b0; fill-opacity: 0.712802; stroke: #4c72b0; stroke-opacity: 0.712802; stroke-width: 0.5"/>
    </g>
   </g>
   <g id="line2d_21">
    <path d="M 523.964609 128.752344 
L 534.964609 128.752344 
L 545.964609 128.752344 
" style="fill: none; stroke-dasharray: 8.062043,3.486289; stroke-dashoffset: 0; stroke: #cccccc; stroke-width: 2.178931; stroke-linecap: square"/>
   </g>
   <g id="text_29">
    <!-- 0.03 -->
    <g style="fill: #262626" transform="translate(554.764609 132.602344) scale(0.11 -0.11)">
     <use xlink:href="#DejaVuSans-30"/>
     <use xlink:href="#DejaVuSans-2e" x="63.623047"/>
     <use xlink:href="#DejaVuSans-30" x="95.410156"/>
     <use xlink:href="#DejaVuSans-33" x="159.033203"/>
    </g>
   </g>
   <g id="PathCollection_8">
    <defs>
     <path id="me9a544dcac" d="M 0 3.701619 
C 0.981681 3.701619 1.923287 3.311593 2.61744 2.61744 
C 3.311593 1.923287 3.701619 0.981681 3.701619 0 
C 3.701619 -0.981681 3.311593 -1.923287 2.61744 -2.61744 
C 1.923287 -3.311593 0.981681 -3.701619 0 -3.701619 
C -0.981681 -3.701619 -1.923287 -3.311593 -2.61744 -2.61744 
C -3.311593 -1.923287 -3.701619 -0.981681 -3.701619 0 
C -3.701619 0.981681 -3.311593 1.923287 -2.61744 2.61744 
C -1.923287 3.311593 -0.981681 3.701619 0 3.701619 
z
" style="stroke: #4c72b0; stroke-opacity: 0.850419; stroke-width: 0.5"/>
    </defs>
    <g>
     <use xlink:href="#me9a544dcac" x="534.964609" y="145.860781" style="fill: #4c72b0; fill-opacity: 0.850419; stroke: #4c72b0; stroke-opacity: 0.850419; stroke-width: 0.5"/>
    </g>
   </g>
   <g id="line2d_22">
    <path d="M 523.964609 144.898281 
L 534.964609 144.898281 
L 545.964609 144.898281 
" style="fill: none; stroke-dasharray: 9.824602,4.248477; stroke-dashoffset: 0; stroke: #cccccc; stroke-width: 2.655298; stroke-linecap: square"/>
   </g>
   <g id="text_30">
    <!-- 0.04 -->
    <g style="fill: #262626" transform="translate(554.764609 148.748281) scale(0.11 -0.11)">
     <defs>
      <path id="DejaVuSans-34" d="M 2419 4116 
L 825 1625 
L 2419 1625 
L 2419 4116 
z
M 2253 4666 
L 3047 4666 
L 3047 1625 
L 3713 1625 
L 3713 1100 
L 3047 1100 
L 3047 0 
L 2419 0 
L 2419 1100 
L 313 1100 
L 313 1709 
L 2253 4666 
z
" transform="scale(0.015625)"/>
     </defs>
     <use xlink:href="#DejaVuSans-30"/>
     <use xlink:href="#DejaVuSans-2e" x="63.623047"/>
     <use xlink:href="#DejaVuSans-30" x="95.410156"/>
     <use xlink:href="#DejaVuSans-34" x="159.033203"/>
    </g>
   </g>
  </g>
 </g>
 <defs>
  <clipPath id="p13c85e690a">
   <rect x="44.078125" y="22.318125" width="196.477479" height="147.16"/>
  </clipPath>
  <clipPath id="p3387376b7b">
   <rect x="290.678125" y="22.318125" width="196.477479" height="147.16"/>
  </clipPath>
 </defs>
</svg>
